<?xml version="1.0" encoding="utf-8"?>
<!-- Generator: Adobe Illustrator 16.0.0, SVG Export Plug-In . SVG Version: 6.00 Build 0)  -->
<!DOCTYPE svg PUBLIC "-//W3C//DTD SVG 1.1//EN" "http://www.w3.org/Graphics/SVG/1.1/DTD/svg11.dtd">
<svg version="1.1" id="Capa_1" xmlns="http://www.w3.org/2000/svg" xmlns:xlink="http://www.w3.org/1999/xlink" x="0px" y="0px"
	 width="150px" height="80px" viewBox="0 0 150 80" enable-background="new 0 0 150 80" xml:space="preserve">
<g>
	<rect x="31.212" y="27.524" fill-rule="evenodd" clip-rule="evenodd" fill="#1D1D1B" width="12.893" height="2.916"/>
	<rect x="31.212" y="32.962" fill-rule="evenodd" clip-rule="evenodd" fill="#1D1D1B" width="12.893" height="2.938"/>
	<rect x="31.212" y="37.808" fill-rule="evenodd" clip-rule="evenodd" fill="#1D1D1B" width="12.893" height="2.917"/>
	<polygon fill-rule="evenodd" clip-rule="evenodd" fill="#1D1D1B" points="44.85,27.524 47.788,27.524 54.718,40.725 51.802,40.725 
			"/>
	<polygon fill-rule="evenodd" clip-rule="evenodd" fill="#1D1D1B" points="13.891,40.768 17.399,40.768 22.202,31.712 22.77,31.712 
		27.573,40.768 30.796,40.768 23.495,27.502 23.495,27.437 21.499,27.437 21.499,27.459 	"/>
	<polygon fill-rule="evenodd" clip-rule="evenodd" fill="#1D1D1B" points="49.894,27.437 53.424,27.437 58.225,36.514 
		58.794,36.514 63.598,27.437 66.82,27.437 59.519,40.701 59.519,40.768 57.5,40.768 57.5,40.745 	"/>
	<path fill-rule="evenodd" clip-rule="evenodd" fill="#1D1D1B" d="M89.535,26.845c4.406,0,7.98,3.267,7.98,7.302
		c0,4.034-3.574,7.278-7.98,7.278c-4.407,0-8.004-3.244-8.004-7.278C81.531,30.112,85.128,26.845,89.535,26.845L89.535,26.845z
		 M89.49,29.453c-2.85,0-5.151,2.105-5.151,4.693c0,2.609,2.302,4.714,5.151,4.714c2.851,0,5.152-2.104,5.152-4.714
		C94.643,31.559,92.341,29.453,89.49,29.453z"/>
	<path fill-rule="evenodd" clip-rule="evenodd" fill="#1D1D1B" d="M73.092,26.845c4.404,0,7.979,3.267,7.979,7.302
		c0,4.034-3.575,7.278-7.979,7.278c-4.407,0-7.982-3.244-7.982-7.278C65.11,30.112,68.685,26.845,73.092,26.845L73.092,26.845z
		 M73.092,29.453c-2.83,0-5.131,2.105-5.131,4.693c0,2.609,2.302,4.714,5.131,4.714c2.827,0,5.129-2.104,5.129-4.714
		C78.221,31.559,75.919,29.453,73.092,29.453z"/>
	<path fill-rule="evenodd" clip-rule="evenodd" fill="#1D1D1B" d="M1.24,27.437c1.908,0,3.815,0,5.724,0
		c1.929,0.043,3.332,0.176,4.779,0.723c5.373,2.04,5.087,9.78,0.11,11.796c-1.315,0.527-2.938,0.921-4.889,0.876H1.24V27.437
		L1.24,27.437z M4.134,30.155v7.982h3.399c1.161,0.021,2.127-0.22,2.917-0.548c2.937-1.184,3.112-5.789-0.087-6.994
		c-0.833-0.33-1.688-0.395-2.829-0.439C6.415,30.155,5.274,30.155,4.134,30.155z"/>
	<path fill-rule="evenodd" clip-rule="evenodd" fill="#E30A34" d="M144.81,37.194c1.534,0,2.763,1.249,2.763,2.761
		c0,1.514-1.229,2.743-2.763,2.743c-1.512,0-2.764-1.229-2.764-2.743C142.046,38.443,143.298,37.194,144.81,37.194L144.81,37.194z
		 M104.028,33.204c-0.526,4.165-0.526,8.156,0,12.498c0.263,3.179,1.25,5.701,3.881,6.819c1.577,0.526,2.871,0.504,5.042,0
		c5.065-1.404,18.922-8.902,13.396-16.028C122.313,31.251,105.3,19.675,104.028,33.204L104.028,33.204z M106.944,36.054
		c0.219-1.974,1.294-3.092,2.587-3.487c0.834-0.176,2.126-0.218,3.288,0c4.364,0.527,7.696,2.325,10.723,5.415
		c1.03,1.053,1.337,2.698,0,4.189c-2.543,2.39-5.919,4.32-9.977,5.195c-1.6,0.309-2.564,0.33-3.749,0
		c-1.952-0.635-2.676-2.126-2.872-3.989C106.549,40.832,106.549,38.509,106.944,36.054L106.944,36.054z M148.756,32.634
		c0.022-1.953-0.043-3.903,0-5.856c-7.828,0.527-14.033,3.158-18.482,8.069c-2.565,3.443-2.435,7.016,0.109,10.239
		c4.101,5.416,11.117,7.301,18.373,8.135c0-1.907,0-3.838,0-5.745c-3.684-0.438-7.477-0.942-11.05-2.236
		c-8.792-3.465-8.661-6.907,0-10.393C141.345,33.422,145.096,32.895,148.756,32.634z"/>
	<path fill="#1D1D1B" d="M29.239,52.234v-6.292h3.595v1.03h-2.302v1.469h2.126v0.987h-2.126v1.732h2.346v1.073H29.239L29.239,52.234
		z M35.401,52.234v-6.292h1.293v5.219h2.347v1.073H35.401L35.401,52.234z M41.496,52.234v-6.292h3.596v1.03H42.79v1.469h2.126v0.987
		H42.79v1.732h2.347v1.073H41.496L41.496,52.234z M50.441,49.976h1.25c0,0.045,0,0.067,0.021,0.133c0,0.043,0,0.088,0,0.131
		c0,0.725-0.176,1.25-0.525,1.622c-0.331,0.351-0.854,0.526-1.557,0.526c-0.331,0-0.614-0.043-0.855-0.131
		c-0.242-0.064-0.438-0.197-0.614-0.351c-0.24-0.22-0.395-0.526-0.505-0.899c-0.086-0.395-0.131-1.053-0.131-1.996
		c0-0.657,0.022-1.161,0.087-1.556c0.043-0.373,0.133-0.658,0.264-0.855c0.176-0.284,0.416-0.482,0.702-0.612
		c0.263-0.133,0.637-0.198,1.053-0.198c0.702,0,1.226,0.153,1.557,0.504c0.307,0.329,0.482,0.854,0.482,1.6h-1.272V47.74
		c0-0.352-0.044-0.593-0.174-0.768c-0.133-0.176-0.309-0.241-0.549-0.241c-0.33,0-0.527,0.109-0.658,0.329
		c-0.11,0.24-0.153,0.877-0.153,1.93c0,1.14,0.042,1.819,0.153,2.061c0.109,0.241,0.328,0.372,0.635,0.372
		c0.286,0,0.506-0.086,0.614-0.284c0.11-0.197,0.176-0.549,0.176-1.075V49.976L50.441,49.976z M55.309,52.234v-5.262h-1.491v-1.03
		h4.275v1.03h-1.491v5.262H55.309L55.309,52.234z M61.603,48.595h0.745c0.395,0,0.657-0.065,0.789-0.196
		c0.154-0.133,0.219-0.396,0.219-0.746c0-0.307-0.065-0.526-0.241-0.657c-0.153-0.11-0.438-0.176-0.877-0.176h-0.635V48.595
		L61.603,48.595z M60.351,52.234v-6.292h2.325c0.702,0,1.229,0.131,1.536,0.373c0.307,0.263,0.459,0.68,0.459,1.271
		c0,0.395-0.087,0.725-0.263,0.966c-0.154,0.241-0.394,0.373-0.723,0.416c0.613,0.153,0.943,0.614,0.963,1.403
		c0,0.044,0,0.065,0,0.089l0.044,0.832c0,0.241,0.045,0.416,0.088,0.569c0.065,0.133,0.153,0.264,0.263,0.373h-1.557
		c-0.021-0.109-0.042-0.24-0.065-0.373c-0.021-0.153-0.044-0.351-0.044-0.613l-0.022-0.658v-0.175c0-0.352-0.086-0.614-0.262-0.745
		c-0.155-0.133-0.506-0.198-1.032-0.198h-0.459v2.763H60.351L60.351,52.234z M68.464,49.078c0,1.03,0.065,1.688,0.197,1.951
		c0.131,0.285,0.395,0.416,0.745,0.416c0.352,0,0.592-0.131,0.725-0.395c0.131-0.263,0.197-0.921,0.197-1.973
		c0-1.03-0.066-1.689-0.197-1.973c-0.132-0.265-0.373-0.396-0.725-0.396c-0.371,0-0.614,0.132-0.745,0.396
		C68.53,47.389,68.464,48.048,68.464,49.078L68.464,49.078z M67.128,49.078c0-0.659,0.042-1.206,0.108-1.602
		c0.067-0.395,0.176-0.702,0.331-0.898c0.196-0.285,0.437-0.483,0.722-0.614c0.286-0.109,0.658-0.175,1.118-0.175
		c0.461,0,0.812,0.065,1.098,0.175c0.284,0.131,0.525,0.329,0.723,0.614c0.153,0.219,0.263,0.504,0.329,0.921
		c0.066,0.394,0.11,0.92,0.11,1.579c0,0.657-0.043,1.206-0.11,1.6c-0.066,0.395-0.176,0.702-0.329,0.9
		c-0.198,0.283-0.439,0.504-0.723,0.614c-0.286,0.13-0.636,0.195-1.098,0.195c-0.46,0-0.833-0.065-1.118-0.195
		c-0.286-0.11-0.526-0.331-0.722-0.614c-0.155-0.198-0.263-0.506-0.331-0.9C67.17,50.284,67.128,49.757,67.128,49.078L67.128,49.078
		z M74.296,52.234v-6.292h1.315l1.819,4.385l-0.042-4.385h1.227v6.292h-1.337l-1.819-4.407l0.022,4.407H74.296L74.296,52.234z
		 M81.378,52.234v-6.292h1.294v6.292H81.378L81.378,52.234z M88.197,49.976h1.271c0,0.045,0,0.067,0,0.133c0,0.043,0,0.088,0,0.131
		c0,0.725-0.176,1.25-0.504,1.622c-0.352,0.351-0.877,0.526-1.558,0.526c-0.351,0-0.635-0.043-0.877-0.131
		c-0.219-0.064-0.438-0.197-0.613-0.351c-0.22-0.22-0.395-0.526-0.482-0.899c-0.108-0.395-0.153-1.053-0.153-1.996
		c0-0.657,0.022-1.161,0.088-1.556c0.065-0.373,0.153-0.658,0.263-0.855c0.198-0.284,0.417-0.482,0.702-0.612
		c0.286-0.133,0.636-0.198,1.073-0.198c0.702,0,1.206,0.153,1.534,0.504c0.33,0.329,0.484,0.854,0.484,1.6h-1.251V47.74
		c0-0.352-0.065-0.593-0.196-0.768c-0.11-0.176-0.308-0.241-0.549-0.241c-0.306,0-0.526,0.109-0.635,0.329
		c-0.109,0.24-0.175,0.877-0.175,1.93c0,1.14,0.042,1.819,0.152,2.061c0.131,0.241,0.328,0.372,0.635,0.372
		c0.308,0,0.506-0.086,0.614-0.284c0.11-0.197,0.176-0.549,0.176-1.075V49.976L88.197,49.976z M92.122,50.021h1.294v0.395
		c0,0.395,0.043,0.657,0.153,0.789c0.11,0.153,0.307,0.219,0.569,0.219c0.264,0,0.483-0.065,0.614-0.196
		c0.153-0.11,0.22-0.308,0.22-0.549c0-0.175-0.044-0.351-0.154-0.481c-0.087-0.133-0.307-0.308-0.635-0.526l-0.68-0.417
		c-0.57-0.373-0.922-0.658-1.098-0.899c-0.152-0.219-0.218-0.526-0.218-0.877c0-0.526,0.175-0.942,0.504-1.249
		c0.351-0.285,0.832-0.438,1.446-0.438c0.659,0,1.141,0.153,1.491,0.481c0.352,0.308,0.504,0.768,0.504,1.36
		c0,0.065,0,0.109,0,0.154c0,0.02,0,0.042,0,0.087h-1.228v-0.176c0-0.351-0.065-0.591-0.196-0.724
		c-0.11-0.153-0.328-0.241-0.614-0.241c-0.198,0-0.373,0.065-0.483,0.176c-0.108,0.109-0.175,0.264-0.175,0.459
		c0,0.265,0.263,0.549,0.789,0.878c0.022,0,0.022,0,0.022,0l0.724,0.438c0.505,0.308,0.855,0.592,1.031,0.877
		c0.174,0.264,0.263,0.614,0.263,1.03c0,0.571-0.176,1.009-0.526,1.316c-0.373,0.328-0.899,0.481-1.557,0.481
		c-0.702,0-1.229-0.176-1.579-0.504c-0.329-0.329-0.504-0.812-0.504-1.491c0-0.065,0-0.176,0.021-0.35V50.021z"/>
</g>
</svg>
