<?xml version="1.0" encoding="utf-8"?>
<!-- Generator: Adobe Illustrator 16.0.0, SVG Export Plug-In . SVG Version: 6.00 Build 0)  -->
<!DOCTYPE svg PUBLIC "-//W3C//DTD SVG 1.1//EN" "http://www.w3.org/Graphics/SVG/1.1/DTD/svg11.dtd">
<svg version="1.1" id="Capa_1" xmlns="http://www.w3.org/2000/svg" xmlns:xlink="http://www.w3.org/1999/xlink" x="0px" y="0px"
	 width="150px" height="80px" viewBox="0 0 150 80" enable-background="new 0 0 150 80" xml:space="preserve">
<g>
	<path fill="#4E6ACE" d="M116.617,32.938c-3.863-4.185-30.254-26.393-58.58-30.256C30.774-1.036,20.514,17.615,19.783,38.248l0,0
		l0,0v0.001l0,0c0.731,20.635,10.991,39.285,38.255,35.566c28.326-3.862,54.716-26.071,58.58-30.255
		c1.545-1.675,2.727-3.248,2.541-5.312C119.344,36.184,118.162,34.612,116.617,32.938z"/>
	<path fill="#BBE520" d="M90.191,67.582c1.555-1.38,13.213-12.002,24.619-13.274c10.98-1.227,15.113,4.925,15.406,11.728l0,0l0,0
		l0,0l0,0c-0.293,6.805-4.369,12.224-15.406,11.728c-11.67-0.525-23.064-5.299-24.619-6.678c-0.623-0.553-1.098-1.071-1.023-1.753
		C89.094,68.652,89.568,68.134,90.191,67.582z"/>
	<polygon fill="#FFFFFF" points="92.502,61.187 101.852,26.905 97.869,26.905 92.92,45.734 88.455,26.905 83.988,26.905 
		90.869,52.012 87.998,63.65 	"/>
	<path fill="#FFFFFF" d="M57.012,26.302c-5.371,0-7.665,4.949-7.665,4.949l2.897,2.534c0,0,1.569-3.862,5.311-3.862
		c3.742,0,3.983,2.534,3.983,3.862s-1.69,2.771-6.156,4.463c-4.466,1.693-6.88,3.745-6.88,7.486c0,3.743,3.38,7.362,7.122,7.362
		c3.741,0,5.914-3.138,5.914-3.138v3.138h3.983v-20.64C65.521,32.457,66.004,26.302,57.012,26.302z M61.056,45.373
		c0,0-0.599,3.861-4.042,4.104c-3.442,0.24-4.649-4.226-2.839-6.277c1.811-2.052,6.88-3.501,6.88-3.501V45.373z"/>
	<path fill="none" stroke="#000000" stroke-miterlimit="10" d="M81.574,30.768"/>
	<path fill="#FFFFFF" d="M81.574,30.768c0,0-8.771-3.5-9.253,2.213c-0.483,5.713,11.667,2.092,11.667,12.715
		c0,10.621-16.415,6.195-16.415,6.195l0.966-2.977c0,0,11.508,2.415,11.508-3.14c0-5.552-12.474-5.31-12.474-12.392
		c0-7.081,7.885-7.806,11.427-7.081c3.541,0.724,3.782,1.288,3.782,1.288L81.574,30.768z"/>
	<path fill="#FFFFFF" d="M37.881,48.831c-2.333-2.413-2.052-9.091-2.052-9.091h9.133l-0.081-2.173l0.081-2.172h-9.133
		c0,0-0.281-6.679,2.052-9.092c2.333-2.414,9.897-0.845,9.897-0.845l-1.408-3.46c0,0-8.056-2.124-11.99,1.81
		c-3.822,3.823-3.621,13.76-3.621,13.76s-0.201,9.938,3.621,13.76c3.934,3.937,11.99,1.812,11.99,1.812l1.408-3.46
		C47.779,49.678,40.214,51.246,37.881,48.831z"/>
</g>
</svg>
