<?xml version="1.0" encoding="utf-8"?>
<!-- Generator: Adobe Illustrator 16.0.0, SVG Export Plug-In . SVG Version: 6.00 Build 0)  -->
<!DOCTYPE svg PUBLIC "-//W3C//DTD SVG 1.1//EN" "http://www.w3.org/Graphics/SVG/1.1/DTD/svg11.dtd">
<svg version="1.1" id="Capa_1" xmlns="http://www.w3.org/2000/svg" xmlns:xlink="http://www.w3.org/1999/xlink" x="0px" y="0px"
	 width="100px" height="100px" viewBox="0 0 100 100" enable-background="new 0 0 100 100" xml:space="preserve">
<path fill-rule="evenodd" clip-rule="evenodd" fill="#1175BD" d="M96.602,50.004C96.602,75.742,75.734,96.6,50,96.6
	C24.259,96.6,3.399,75.74,3.399,50.001C3.399,24.264,24.259,3.4,50,3.4C75.734,3.401,96.602,24.266,96.602,50.004z"/>
<g>
	<g>
		<g>
			<path fill="#FFFFFF" d="M84.248,72.333l-8.383-12.594l1.471-0.456c0.604-0.191,0.941-0.834,0.753-1.438
				c-0.006-0.03-0.02-0.052-0.03-0.079l-2.579-6.634l5.255-4.88c0.469-0.438,0.49-1.162,0.059-1.631
				c-0.024-0.012-0.044-0.035-0.059-0.056l-5.255-4.884l2.579-6.637c0.229-0.589-0.059-1.25-0.652-1.481
				c-0.026-0.013-0.048-0.019-0.07-0.028l-6.911-2.158l-0.606-7.084c-0.017-0.309-0.175-0.602-0.424-0.802
				c-0.249-0.196-0.564-0.28-0.869-0.239l-7.197,0.995l-3.68-6.134c-0.324-0.545-1.023-0.72-1.571-0.397
				c-0.019,0.012-0.026,0.019-0.046,0.027l-6.03,3.977l-6.033-3.977c-0.526-0.35-1.236-0.204-1.588,0.331
				c-0.012,0.012-0.02,0.029-0.03,0.037l-3.679,6.141l-7.188-1.002c-0.631-0.082-1.206,0.356-1.292,0.984
				c-0.004,0.023-0.004,0.038-0.004,0.059l-0.611,7.084l-6.901,2.158c-0.603,0.186-0.946,0.832-0.753,1.439
				c0.014,0.022,0.019,0.047,0.024,0.068l2.579,6.637l-5.254,4.885c-0.473,0.432-0.498,1.161-0.059,1.625
				c0.016,0.016,0.034,0.037,0.059,0.059l5.248,4.883l-2.573,6.635c-0.237,0.59,0.056,1.254,0.647,1.483
				c0.024,0.016,0.049,0.017,0.081,0.032l1.514,0.473l-8.465,13.754c-0.329,0.539-0.163,1.248,0.375,1.576
				c0.245,0.15,0.53,0.206,0.813,0.157l11.516-2.097l2.074,10.379c0.094,0.453,0.449,0.811,0.904,0.902
				c0.074,0.008,0.15,0.018,0.224,0.018c0.39,0,0.745-0.191,0.95-0.506l8.062-12.086l1.708,2.852
				c0.161,0.268,0.427,0.457,0.73,0.527c0.083,0.021,0.173,0.025,0.257,0.025c0.223,0,0.443-0.062,0.639-0.19l6.025-3.964
				l6.028,3.964c0.526,0.353,1.248,0.21,1.592-0.325c0.008-0.013,0.015-0.027,0.027-0.035l1.709-2.86l8.061,12.095
				c0.211,0.312,0.566,0.506,0.953,0.506c0.076,0,0.154-0.012,0.217-0.021c0.466-0.088,0.824-0.448,0.909-0.903L71.59,73.05
				l11.604,1.065c0.634,0.054,1.188-0.413,1.248-1.042C84.462,72.812,84.396,72.548,84.248,72.333z M32.216,80.349l-1.763-8.764
				c-0.116-0.613-0.711-1.015-1.323-0.909l-10.102,1.839l7.418-12.059l3.129,0.978l0.598,7.085c0.033,0.314,0.188,0.607,0.431,0.801
				c0.248,0.199,0.567,0.285,0.876,0.242l7.191-1l0.658,1.115L32.216,80.349z M59.746,66.737l-3.45,5.764l-5.665-3.742
				c-0.379-0.247-0.879-0.247-1.261,0l-5.666,3.734l-3.453-5.762c-0.207-0.348-0.588-0.557-0.988-0.557
				c-0.049,0-0.102,0-0.157,0.009l-6.735,0.935l-0.572-6.65c-0.035-0.463-0.363-0.857-0.807-1.001l-6.467-2.019l2.412-6.21
				c0.168-0.438,0.062-0.939-0.291-1.259l-4.906-4.572l4.91-4.574c0.35-0.326,0.463-0.821,0.291-1.257l-2.41-6.217l6.473-2.022
				c0.443-0.133,0.764-0.533,0.801-0.994l0.57-6.65l6.744,0.936c0.451,0.063,0.906-0.146,1.145-0.545l3.455-5.764l5.652,3.734
				c0.382,0.248,0.882,0.248,1.261,0l5.665-3.734l3.45,5.766c0.242,0.393,0.689,0.611,1.146,0.547l6.747-0.933l0.567,6.646
				c0.034,0.468,0.357,0.86,0.8,1.003l6.474,2.017l-2.422,6.212c-0.172,0.436-0.05,0.932,0.294,1.258l4.914,4.572l-4.914,4.573
				c-0.344,0.321-0.466,0.821-0.294,1.259l2.409,6.217l-6.461,2.018c-0.449,0.137-0.766,0.531-0.808,1.002l-0.569,6.644
				l-6.737-0.933C60.436,66.13,59.988,66.344,59.746,66.737z M70.77,70.666c-0.582-0.046-1.113,0.349-1.23,0.921l-1.748,8.756
				l-7.117-10.672l0.654-1.108l7.197,1.001c0.624,0.083,1.209-0.352,1.293-0.984c0-0.018,0-0.036,0.006-0.059l0.601-7.086
				l3.153-0.982l7.43,11.153L70.77,70.666z"/>
		</g>
	</g>
	<g>
		<g>
			<path fill="#FFFFFF" d="M67.858,39.667c0-1.9-1.54-3.443-3.442-3.443l-8.037-0.004v-4.589c0-3.171-2.564-5.737-5.729-5.745h-0.01
				c-0.64,0-1.155,0.514-1.155,1.15v5.469l-2.061,4.128l-3.698,2.952c-0.036-0.598-0.528-1.064-1.128-1.068h-8.041
				c-0.625,0-1.147,0.513-1.147,1.148v17.223c0,0.637,0.522,1.15,1.147,1.15h8.041c0.631,0,1.145-0.514,1.145-1.15l17.231,0.001
				c1.902-0.011,3.436-1.545,3.441-3.444c-0.006-0.594-0.165-1.172-0.467-1.688c0.219-0.127,0.411-0.285,0.588-0.463
				c1.115-1.084,1.345-2.785,0.563-4.123c0.217-0.139,0.411-0.294,0.582-0.472c1.12-1.081,1.352-2.78,0.574-4.128
				c0.203-0.127,0.397-0.283,0.581-0.461C67.492,41.466,67.866,40.585,67.858,39.667z M41.446,55.739h-5.73V40.811h5.73V55.739z
				 M65.211,40.482c-0.209,0.217-0.5,0.335-0.795,0.329h-4.597v2.303h3.444c0.637,0,1.152,0.512,1.152,1.145
				c0,0.312-0.125,0.604-0.353,0.821c-0.206,0.213-0.497,0.328-0.8,0.328h-4.59v2.296h3.443c0.641,0,1.146,0.513,1.146,1.148
				c0,0.309-0.118,0.606-0.352,0.816c-0.213,0.217-0.491,0.334-0.795,0.334H57.53v2.295h3.444c0.627,0,1.143,0.514,1.143,1.146
				c0,0.312-0.127,0.609-0.354,0.822c-0.206,0.209-0.497,0.327-0.788,0.327l-17.231-0.003V42.514l5.312-4.245
				c0.135-0.104,0.231-0.238,0.311-0.383l2.299-4.596c0.08-0.154,0.119-0.336,0.119-0.515V28.38
				c1.385,0.481,2.305,1.787,2.299,3.251v5.741c0,0.631,0.51,1.145,1.146,1.145l9.188,0.002c0.629,0,1.15,0.513,1.15,1.15
				C65.566,39.976,65.435,40.274,65.211,40.482z"/>
		</g>
	</g>
</g>
</svg>
