<?xml version="1.0" encoding="utf-8"?>
<!-- Generator: Adobe Illustrator 16.0.0, SVG Export Plug-In . SVG Version: 6.00 Build 0)  -->
<!DOCTYPE svg PUBLIC "-//W3C//DTD SVG 1.1//EN" "http://www.w3.org/Graphics/SVG/1.1/DTD/svg11.dtd">
<svg version="1.1" id="Capa_1" xmlns="http://www.w3.org/2000/svg" xmlns:xlink="http://www.w3.org/1999/xlink" x="0px" y="0px"
	 width="150px" height="80px" viewBox="0 0 150 80" enable-background="new 0 0 150 80" xml:space="preserve">
<g>
	<path fill-rule="evenodd" clip-rule="evenodd" fill="#3171B7" d="M74.999,1.219c21.416,0,38.78,17.362,38.78,38.78
		c0,21.417-17.364,38.782-38.78,38.782S36.221,61.416,36.221,39.999C36.221,18.582,53.583,1.219,74.999,1.219L74.999,1.219z"/>
	<path fill-rule="evenodd" clip-rule="evenodd" fill="#FFFFFD" d="M42.407,28.98c-0.028,0.342-0.248,1.02-0.342,1.403
		c-0.794,3.38-1.421,7.368-0.451,10.709c1.79,6.159,7.523,3.872,6.346,0.388c-0.509-1.511-1.833-2.385-2.645-4.288
		c-0.802-1.886-0.86-3.82-0.682-6.088c0.284-3.613,1.784-8.026,3.188-10.678c0.946-1.787,1.558-2.669,2.733-4.196
		c0.514-0.674,1.082-1.276,1.633-1.856c1.241-1.304,2.313-2.111,3.741-3.189c0.632-0.476,1.403-0.945,2.097-1.353
		c4.678-2.73,10.607-4.414,16.35-4.451c3.953-0.023,6.996,0.389,10.666,1.481c0.605,0.178,0.711,0.247,1.095,0.595
		c-0.634,0.04-2.086-0.517-2.789-0.668c-0.973-0.215-1.987-0.363-3.009-0.479c-12.794-1.467-11.768,7.772-6.902,6.707
		c1.386-0.304,2.457-1.777,4.317-2.659c1.582-0.748,4.081-0.945,6.068-0.731c2.174,0.233,3.811,0.68,5.735,1.213
		c8.183,2.283,14.703,8.453,17.831,16.875c1.237,3.331,2.195,7.574,2.229,11.637c0.037,4.033-0.315,6.994-1.398,10.74
		c-0.109,0.381-0.21,1.057-0.677,1.023c0.268-0.822,0.493-1.893,0.682-2.779c0.63-2.941,0.945-6.481,0.132-9.321
		c-0.514-1.795-1.459-3.299-3.114-3.818c-1.064-0.334-2.062,0.097-2.616,0.648c-0.581,0.577-0.923,1.465-0.656,2.585
		c0.353,1.508,1.904,2.63,2.632,4.339c2.092,4.898-0.22,12.52-2.371,16.764c-1.646,3.248-3.787,5.775-6.109,7.799
		c-2.351,2.047-5.288,3.779-8.741,5.125c-3.447,1.344-7.485,2.062-11.685,2.191c-2.095,0.064-4.443-0.08-6.459-0.41
		c-1.236-0.209-4.909-0.816-5.391-1.527c0.376-0.168,2.348,0.455,2.833,0.555c2.833,0.594,6.676,0.934,9.373,0.133
		c1.641-0.486,3.435-1.508,3.777-3.158c0.426-2.092-1.354-3.822-3.416-3.209c-1.34,0.398-2.64,2.066-4.205,2.729
		c-1.845,0.777-3.768,0.967-6.042,0.744c-3.914-0.385-7.712-1.699-10.697-3.178c-1.608-0.793-2.978-1.766-4.228-2.742
		c-2.564-1.998-4.751-4.643-6.426-7.443c-4.455-7.451-5.522-17.162-3.414-25.739c0.111-0.464,0.241-0.886,0.347-1.372
		C41.866,29.499,42.003,29.171,42.407,28.98L42.407,28.98z M73.417,3.074C65.101,3.5,57.685,6.385,51.661,11.343l-1.857,1.628
		c-1.485,1.374-2.641,2.637-3.879,4.202c-0.646,0.813-1.352,1.779-1.932,2.709c-1.4,2.253-2.133,3.532-3.193,6.037
		c-1.906,4.504-2.945,10.021-2.74,15.69c0.289,8.086,3.37,15.754,8.262,21.734c0.36,0.443,0.694,0.854,1.078,1.264l0.817,0.906
		c0.126,0.117,0.181,0.158,0.292,0.277c0.979,1.066,2.545,2.416,3.643,3.293c2.586,2.068,5.596,3.781,8.754,5.111
		c4.609,1.941,9.889,2.945,15.687,2.746c2.808-0.094,5.494-0.559,8.018-1.223c2.759-0.727,5.859-1.982,8.207-3.324
		c1.603-0.916,2.724-1.598,4.218-2.713c0.916-0.686,1.739-1.375,2.553-2.084c0.562-0.482,2.253-2.156,2.621-2.586l0.81-0.916
		c0.98-1.098,2.146-2.725,2.973-3.963c1.211-1.816,2.269-3.875,3.184-6.051c1.782-4.23,3.089-10.273,2.731-15.674
		c-0.091-1.41-0.21-2.792-0.413-4.167c-0.909-5.977-3.368-11.523-6.862-16.239c-1.35-1.827-2.854-3.524-4.366-4.907
		c-1.311-1.201-2.246-2.042-3.77-3.122c-0.475-0.337-0.893-0.642-1.386-0.953c-1.908-1.213-3.816-2.232-6.047-3.188
		C84.693,3.964,78.975,2.792,73.417,3.074L73.417,3.074z"/>
	<path fill-rule="evenodd" clip-rule="evenodd" fill="#FFFFFD" d="M68.332,42.852c0.044,0.486-0.267,2.215-0.375,2.76
		c-0.701,3.555-2.158,8.562-5.343,10.451c-1.329,0.791-3.565,1.365-4.77,0.148c-0.539-0.535-0.779-1.402-0.696-2.459
		c0.159-2.031,1.47-3.742,2.756-5.117c1.163-1.246,2.967-2.6,4.391-3.529C65.818,44.105,66.703,43.656,68.332,42.852L68.332,42.852z
		 M63.346,31.471c0.066-1.2,0.317-2.317,0.678-3.334c0.633-1.787,2.135-5.059,3.948-6.104c0.967-0.558,2.768,0.069,1.146,3.198
		c-0.486,0.936-0.99,1.681-1.564,2.455C66.789,28.712,64.407,31.285,63.346,31.471L63.346,31.471z M83.709,29.82
		c0.022-2.156,0.509-3.674,1.327-5.246c0.261-0.502,0.956-1.526,1.355-1.928c0.409-0.412,1.519-1.147,2.216-0.441
		c1.025,1.044-1.147,3.756-1.597,4.345C86.66,27.01,84.39,29.49,83.709,29.82L83.709,29.82z M60.088,31.917
		c-0.731-0.001-1.391-0.623-1.669-0.981c-1.371-1.785-0.159-4.729-0.142-5.581c0.007-0.364-0.266-0.672-0.387-0.94
		c-1.604-0.011-2.143,0.869-2.589,2.099c-0.434,1.188-0.533,2.73-0.198,4.042c0.341,1.339,1.007,2.226,1.759,2.922
		c0.785,0.729,1.979,1.161,3.362,1.353c0.415,1.561,1.655,3.226,3.301,3.761c1.808,0.587,3.393-0.033,4.937-0.807
		c0.212-0.106,0.387-0.239,0.578-0.321c-0.006,0.366-0.076,0.902-0.142,1.25c-0.111,0.608-0.125,0.612-0.556,0.881
		c-0.569,0.358-1.246,0.674-1.869,1.004c-3.42,1.828-7.707,4.041-10.177,7.015c-1.55,1.869-3.432,5.012-2.38,8.461
		c0.847,2.785,3.48,4.617,7.215,4.043c3.292-0.506,5.431-2.613,6.849-4.594c1.61-2.242,2.651-4.955,3.174-8.316
		c0.271-1.746,0.335-3.424,0.528-5.184c0.143-1.285,0.078-1.053,1.183-1.684c1.738-0.983,3.715-2.189,5.35-3.267
		c1.003-0.663,2.463-1.638,3.392-2.345c0.168,0.148,0.946,1.123,1.057,1.344c-1.01,0.531-2.534,1.588-3.423,2.44
		c-0.889,0.846-1.878,1.992-2.557,3.303c-2.976,5.73-1.664,13.359,3.678,16.74c2.561,1.627,6.105,2.234,9.461,1.043
		c2.683-0.951,4.966-3.17,6.018-5.719c1.311-3.182,0.746-6.947-1.013-9.291c-0.92-1.234-1.896-1.98-3.432-2.439
		c-3.043-0.912-6.569,0.385-7.934,3.332c-0.984,2.133-0.465,5.107,1.352,6.451c1.706,1.262,3.794,0.488,3.311-1.139
		c-0.145-0.498-0.778-1.068-1.205-1.744c-2.01-3.195,2.889-5.848,5.187-2.355c1.247,1.896,1.091,4.959-0.102,7.006
		c-0.423,0.723-0.8,1.141-1.319,1.635c-2.227,2.1-6.238,2.074-8.572-0.043c-2.371-2.15-3.32-5.299-3.005-8.678
		c0.296-3.219,1.698-5.806,4.161-7.605c0.767-0.562,2.04-1.284,3.088-1.213c1.376,0.096,2.66,0.324,4.069-0.036
		c0.72-0.183,1.476-0.657,1.517-1.445c0.079-1.493-2.467-2.001-4.002-1.823c-0.437,0.051-0.862,0.128-1.268,0.211
		c-0.581,0.111-0.689,0.244-1.152-0.055c-0.752-0.481-0.954-1.325-1.204-1.735l2.071-1.654c0.351-0.271,0.677-0.575,0.994-0.854
		c2.167-1.874,5.058-5.353,4.358-8.62c-0.463-2.154-2.591-3.054-4.672-2.607c-1.027,0.217-1.882,0.705-2.559,1.223
		c-2.397,1.834-4.57,6.196-4.038,10.8c0.124,1.056-0.015,1.049-0.44,1.375c-1.057,0.814-2.204,1.557-3.348,2.273
		c-0.669,0.421-4.158,2.682-4.715,2.768c0.013-0.988,0.072-1.917,0.311-2.866c0.161-0.634,1.564-1.855,2.31-3.146
		c2.144-3.713-0.574-4.534-2.491-2.617c-0.664,0.667-1.153,1.639-1.607,2.704c-0.593,1.384-0.233,1.734-1.531,2.816
		c-0.674,0.56-1.66,1.292-2.766,1.543c-0.681,0.155-1.306,0.167-1.786-0.187c-0.322-0.234-0.749-0.773-0.826-1.354
		c1.416-0.472,2.924-1.57,3.863-2.376c2.188-1.875,4.222-4.557,4.978-7.539c0.398-1.571,0.55-3.71-0.863-4.787
		c-1.328-1.015-3.385-0.912-4.913-0.129C62.671,21.714,60.379,27.214,60.088,31.917L60.088,31.917z"/>
</g>
</svg>
