<?xml version="1.0" encoding="utf-8"?>
<!-- Generator: Adobe Illustrator 16.0.0, SVG Export Plug-In . SVG Version: 6.00 Build 0)  -->
<!DOCTYPE svg PUBLIC "-//W3C//DTD SVG 1.1//EN" "http://www.w3.org/Graphics/SVG/1.1/DTD/svg11.dtd">
<svg version="1.1" id="Capa_1" xmlns="http://www.w3.org/2000/svg" xmlns:xlink="http://www.w3.org/1999/xlink" x="0px" y="0px"
	 width="150px" height="80px" viewBox="0 0 150 80" enable-background="new 0 0 150 80" xml:space="preserve">
<g>
	<path fill-rule="evenodd" clip-rule="evenodd" fill="#C2004D" d="M38.573,73.125c18.295,0,33.126-14.831,33.126-33.125
		S56.868,6.875,38.573,6.875C20.279,6.875,5.448,21.706,5.448,40S20.279,73.125,38.573,73.125L38.573,73.125z"/>
	<polygon fill-rule="evenodd" clip-rule="evenodd" fill="#FFFFFF" points="46.641,51.656 39.78,51.656 39.78,25.731 37.236,25.731 
		37.236,54.217 39.78,54.217 39.78,54.199 46.641,54.199 46.641,51.656 	"/>
	<path fill-rule="evenodd" clip-rule="evenodd" fill="#FFFFFF" d="M63.762,41.059H46.68v-2.542h19.585
		c0.026,0.492,0.038,0.985,0.038,1.483c0,15.315-12.414,27.729-27.729,27.729C23.26,67.729,10.844,55.315,10.844,40
		c0-15.314,12.416-27.729,27.729-27.729c0.405,0,0.807,0.009,1.207,0.026l-0.003,2.524c-0.399-0.019-0.801-0.028-1.204-0.028
		c-13.921,0-25.206,11.286-25.206,25.207c0,13.922,11.285,25.207,25.206,25.207c13.542,0,24.59-10.679,25.183-24.073L63.762,41.059
		L63.762,41.059z"/>
	<path fill-rule="evenodd" clip-rule="evenodd" fill="#FFFFFF" d="M28.23,33.406c2.151,0,3.896-1.744,3.896-3.896
		c0-2.151-1.744-3.895-3.896-3.895c-2.152,0-3.896,1.743-3.896,3.895C24.334,31.662,26.078,33.406,28.23,33.406L28.23,33.406z"/>
	<polygon fill-rule="evenodd" clip-rule="evenodd" fill="#868686" points="88.148,56.26 111.817,56.26 111.817,49.112 
		97.531,49.112 96.841,49.112 96.841,48.419 96.841,23.514 88.148,23.514 88.148,56.26 	"/>
	<path fill-rule="evenodd" clip-rule="evenodd" fill="#868686" d="M140.417,25.819c-2.715-2.103-6.208-3.169-10.378-3.169
		c-4.951,0-9.089,1.521-11.964,4.395c-3.003,3.004-4.592,7.429-4.592,12.796c0,5.734,1.681,10.573,4.731,13.622
		c2.394,2.394,5.587,3.659,9.237,3.659c8.016,0,9.861-4.805,9.861-4.805v2.208v1.734h7.238V37.765h-14.41v5.787h5.798h0.835
		c0,0,0.064,7.285-6.781,7.285c-1.738,0-3.289-0.631-4.481-1.823c-1.857-1.856-2.837-4.981-2.837-9.037
		c0-6.714,2.668-10.722,7.137-10.722c2.791,0,4.889,1.714,5.427,4.311h9.22C143.979,29.792,142.944,27.824,140.417,25.819
		L140.417,25.819z"/>
</g>
</svg>
