<?xml version="1.0" encoding="utf-8"?>
<!-- Generator: Adobe Illustrator 16.0.0, SVG Export Plug-In . SVG Version: 6.00 Build 0)  -->
<!DOCTYPE svg PUBLIC "-//W3C//DTD SVG 1.1//EN" "http://www.w3.org/Graphics/SVG/1.1/DTD/svg11.dtd">
<svg version="1.1" id="Capa_1" xmlns="http://www.w3.org/2000/svg" xmlns:xlink="http://www.w3.org/1999/xlink" x="0px" y="0px"
	 width="150px" height="80px" viewBox="0 0 150 80" enable-background="new 0 0 150 80" xml:space="preserve">
<g>
	<path fill="#007A9F" d="M3.337,34.904h7.928v3.384c5.453-7.454,14.03-4.561,18.122,0.152c4.694-8.39,16.693-5.35,16.798,1.756
		h0.002v0.159c0,0.01,0.001,0.02,0.001,0.029h-0.001v19.657h-7.928V42.967c-1.23-3.489-8.018-3.417-9.25-0.13v17.205h-7.928V42.561
		c-2.725-3.495-7.917-2.303-9.816,0.881v16.602H3.337V34.904L3.337,34.904z M132.713,34.11c7.684,0,13.95,5.991,13.95,13.337
		c0,0.425-0.022,0.846-0.063,1.262h-3.716h-3.332h-13.135c0.526,3.877,3.272,6.848,6.565,6.848c2.224,0,4.197-1.353,5.406-3.424
		h7.381c-1.99,5.045-7.098,8.65-13.058,8.65c-7.683,0-13.948-5.99-13.948-13.336C118.764,40.101,125.029,34.11,132.713,34.11
		L132.713,34.11z M139.13,44.203c-1.006-2.959-3.385-5.046-6.146-5.046c-2.762,0-5.139,2.087-6.146,5.046H139.13L139.13,44.203z
		 M85.073,19.217h7.928v17.588c2.339-1.69,5.247-2.693,8.394-2.693c7.684,0,13.949,5.99,13.949,13.336
		c0,7.346-6.267,13.336-13.949,13.336c-3.146,0-6.055-1.007-8.394-2.695v1.954h-7.928V19.217L85.073,19.217z M93.001,45.516v3.861
		c0.842,2.327,3.16,4.008,5.874,4.008c3.418,0,6.209-2.669,6.209-5.938c0-3.271-2.791-5.938-6.209-5.938
		C96.161,41.51,93.843,43.188,93.001,45.516L93.001,45.516z M72.426,34.904h7.928v25.138h-7.928v-2.146
		c-2.38,1.806-5.388,2.888-8.651,2.888c-7.683,0-13.95-5.99-13.95-13.336c0-7.346,6.267-13.336,13.95-13.336
		c3.263,0,6.271,1.079,8.651,2.885V34.904L72.426,34.904z"/>
</g>
<path fill="#FFFFFF" d="M65.575,41.51c3.419,0,6.21,2.668,6.21,5.938c0,3.269-2.791,5.938-6.21,5.938s-6.21-2.669-6.21-5.938
	C59.364,44.178,62.156,41.51,65.575,41.51L65.575,41.51z"/>
</svg>
