<?xml version="1.0" encoding="utf-8"?>
<!-- Generator: Adobe Illustrator 16.0.0, SVG Export Plug-In . SVG Version: 6.00 Build 0)  -->
<!DOCTYPE svg PUBLIC "-//W3C//DTD SVG 1.1//EN" "http://www.w3.org/Graphics/SVG/1.1/DTD/svg11.dtd">
<svg version="1.1" id="Capa_1" xmlns="http://www.w3.org/2000/svg" xmlns:xlink="http://www.w3.org/1999/xlink" x="0px" y="0px"
	 width="150px" height="80px" viewBox="0 0 150 80" enable-background="new 0 0 150 80" xml:space="preserve">
<g>
	<path fill-rule="evenodd" clip-rule="evenodd" fill="#FFFFFF" d="M44.771,51.441c0,2.976-2.418,5.394-5.395,5.394H11.102
		c-3.163,0-5.581-2.418-5.581-5.394V33.769V28.56c0-2.976,2.418-5.395,5.581-5.395h28.275c2.977,0,5.395,2.418,5.395,5.395v18.045
		V51.441L44.771,51.441z"/>
	<path fill-rule="evenodd" clip-rule="evenodd" fill="#1D1D1B" d="M144.294,33.21v4.465c0,0.187-0.372,0.187-0.558,0
		c-0.744-1.116-0.372-2.604-1.675-3.348c-1.675-0.931-4.278-0.931-5.767,0.372c-2.604,2.232-2.791,6.138-2.046,9.487
		c0.372,1.674,1.674,3.534,3.534,3.906c0.93,0.186,1.859,0.372,2.604-0.187c0.373-1.488,0.187-3.163,0.187-4.649
		c0-0.559-0.372-1.117-0.931-1.303c-0.558-0.187-1.302,0.186-1.859-0.373c-0.187-0.558,0.186-0.744,0.558-0.744h6.139v7.628
		c-0.93,0.744-2.231,0.744-3.348,0.93c-3.349,0-7.069,0.186-9.487-2.419c-2.047-2.418-2.418-6.139-1.488-9.114
		c1.488-3.721,5.209-5.396,9.114-5.209C141.132,32.652,142.62,32.838,144.294,33.21L144.294,33.21z"/>
	<path fill-rule="evenodd" clip-rule="evenodd" fill="#1D1D1B" d="M95.37,33.024c0.186,0.186,0,0.372-0.187,0.558
		c-0.186,0.187-0.93,0.187-0.93,0.745c0.744,2.046,1.859,3.72,2.79,5.58c0,0,2.604-4.837,4.093-6.883h13.208
		c0,0,1.116,2.232,1.674,3.349c0,0.186,0,0.559-0.372,0.559c-0.558,0-0.93-1.303-1.302-1.675c-1.117-1.488-2.978-1.488-4.651-1.302
		v12.649c0,0.558,0,0.93,0.559,1.302c0.558,0.187,1.302,0.372,1.674,0.559c0.186,0.371,0,0.744-0.372,0.744h-7.813
		c-0.186-0.186-0.186-0.559,0-0.744c0.559-0.372,1.675,0,2.047-0.931c0.372-0.559,0.372-1.116,0.372-1.116V34.141
		c-1.116-0.559-2.232-0.186-3.162-0.186c-2.232,1.488-3.349,4.65-4.651,7.255c-0.186,2.047-0.372,4.465,0,6.511
		c0.372,0.744,2.233,0.186,1.675,1.488h-7.999c-0.187,0-0.187-0.373-0.187-0.373c0.372-1.115,1.86-0.186,2.232-1.302
		c0.187-1.674,0.187-3.162,0-4.836l-3.721-7.628c-0.372-0.93-1.302-1.115-2.231-1.488c-0.187-0.372,0-0.558,0.371-0.558H95.37
		L95.37,33.024z"/>
	<path fill-rule="evenodd" clip-rule="evenodd" fill="#009FDB" d="M49.236,56.835c-1.675,0-3.163-1.302-3.163-3.162
		s1.488-3.161,3.163-3.161c1.674,0,3.162,1.301,3.162,3.161S50.91,56.835,49.236,56.835L49.236,56.835z M46.631,53.673
		c0,1.488,1.117,2.605,2.605,2.605s2.604-1.117,2.604-2.605c0-1.487-1.116-2.604-2.604-2.604S46.631,52.186,46.631,53.673
		L46.631,53.673z"/>
	<path fill-rule="evenodd" clip-rule="evenodd" fill="#009FDB" d="M48.491,53.859h0.745l0.93,1.674h0.559l-0.931-1.674
		c0.559,0,0.931-0.373,0.931-0.93c0-0.744-0.559-1.117-1.303-1.117h-1.303v3.721h0.372V53.859L48.491,53.859z M48.491,53.486v-1.115
		h0.745c0.372,0,0.93,0,0.93,0.559c0,0.557-0.558,0.557-0.93,0.557H48.491L48.491,53.486z"/>
	<path fill-rule="evenodd" clip-rule="evenodd" fill="#1D1D1B" d="M82.162,42.14h-4.279c0,0,1.303-4.465,2.047-6.696L82.162,42.14
		L82.162,42.14z M56.119,33.024l5.58,9.674l5.396-9.674h5.395c0.186,1.116-1.489,0.744-1.675,1.675c0,3.72,0,8.37,0.186,12.091
		c0,0.559,0.372,1.488,1.303,1.488c0.744,0,1.674-0.186,2.047-0.93c1.487-4.092,2.976-7.999,4.278-12.092
		c0.186-0.558-0.187-1.488-0.745-1.488c-0.93,0-0.744-0.744-0.744-0.744h6.14c0,0,3.162,9.859,5.022,14.51
		c0.372,1.116,2.046,0.187,1.86,1.675h-7.627c-0.187-0.186-0.187-0.373-0.187-0.744c0.372-0.559,1.488,0,1.674-0.931
		c-0.372-1.303-1.302-4.092-1.302-4.092h-5.209l-1.302,4.092c-0.186,0.931,2.046,0.559,1.86,1.675H65.234
		c-0.373-0.186-0.373-0.373-0.187-0.744c0.559-0.372,1.303,0,1.674-0.744c0,0,0.373-0.372,0.373-1.303
		c0-3.161,0.186-6.697-0.187-10.045l-5.953,11.905c-0.371,0.187-0.744,0.187-1.302,0c-1.674-3.906-3.721-7.627-5.767-11.533
		c-0.559,3.349-0.559,6.883-0.559,10.23c0,1.303,1.302,1.117,2.046,1.489c0.373,0,0.187,0.559,0.187,0.744h-5.952
		c0-0.186,0-0.559,0-0.744c0.93-0.187,1.674-0.559,1.86-1.303c0.372-3.72,0.743-7.627,0.93-11.348c0-0.744-0.187-1.674-0.93-1.859
		c-0.372-0.187-1.303-0.187-1.116-0.745l0.186-0.186H56.119L56.119,33.024z"/>
	<path fill-rule="evenodd" clip-rule="evenodd" fill="#1D1D1B" d="M123.087,42.14h-4.278l2.047-6.696L123.087,42.14L123.087,42.14z
		 M129.04,47.162c0.372,1.488,2.418,0.559,2.046,2.047h-7.627c-0.186-0.186-0.372-0.373-0.186-0.744
		c0.372-0.559,1.859-0.187,1.674-0.931l-1.302-4.092h-5.209l-1.303,4.092c-0.186,1.116,2.047,0.187,1.675,1.675h-5.767
		c-0.187-0.186-0.187-0.559,0-0.744c0.744-0.187,2.047-0.187,2.419-1.303l4.092-11.719c0-0.559,0.186-0.931-0.187-1.303
		c-0.372-0.559-1.302-0.559-1.302-1.116h6.139L129.04,47.162L129.04,47.162z"/>
	<path fill-rule="evenodd" clip-rule="evenodd" fill="#009FDB" d="M5.521,33.769c0,0,0-1.86,2.232-1.86
		c2.418,0,3.534,2.791,3.534,2.791l5.209,12.091c0,0,0.558,1.303,1.488,1.86c0.93,0.559,2.604,0.559,2.604,0.559h3.349
		c0,0-0.558-0.559-1.115-1.303c-0.559-0.744-0.931-1.488-0.931-1.488L16.31,33.396c0,0-0.744-1.488-1.86-2.046
		c-0.93-0.559-2.231-0.559-2.231-0.559H8.869c0,0-1.86,0-2.419-0.372c-0.93-0.558-0.93-1.86-0.93-1.86
		c0-2.976,2.418-5.395,5.581-5.395h28.275c2.977,0,5.395,2.418,5.395,5.395v18.045c0,0,0,1.488-2.046,1.488
		c-2.604,0-3.349-2.047-3.349-2.047l-5.395-12.649c0,0-0.744-1.488-1.86-2.046c-1.116-0.559-2.419-0.559-2.419-0.559h-3.162
		c0,0,0.744,0.93,1.302,1.488c0.372,0.558,0.745,1.675,0.745,1.675l5.395,12.835c0,0,0.743,1.303,1.674,1.86
		c0.931,0.559,2.604,0.559,2.604,0.559h3.349c0,0,1.488-0.186,2.232,0.371c1.115,0.744,0.93,1.861,0.93,1.861
		c0,2.976-2.418,5.394-5.395,5.394H11.102c-3.163,0-5.581-2.418-5.581-5.394V33.769L5.521,33.769z"/>
	<path fill-rule="evenodd" clip-rule="evenodd" fill="#FFFFFF" d="M17.798,30.792h3.349c0,0,1.303,0,2.418,0.559
		c0.931,0.558,1.675,2.046,1.675,2.046l5.58,13.021c0,0,0.372,0.744,0.931,1.488c0.558,0.744,1.116,1.303,1.116,1.303h-3.349
		c0,0-1.675,0-2.604-0.559c-0.93-0.558-1.488-1.86-1.488-1.86L20.03,33.955c0,0-0.372-1.117-0.93-1.675
		C18.729,31.722,17.798,30.792,17.798,30.792L17.798,30.792z"/>
</g>
</svg>
