<?xml version="1.0" encoding="utf-8"?>
<!-- Generator: Adobe Illustrator 16.0.0, SVG Export Plug-In . SVG Version: 6.00 Build 0)  -->
<!DOCTYPE svg PUBLIC "-//W3C//DTD SVG 1.1//EN" "http://www.w3.org/Graphics/SVG/1.1/DTD/svg11.dtd">
<svg version="1.1" id="Capa_1" xmlns="http://www.w3.org/2000/svg" xmlns:xlink="http://www.w3.org/1999/xlink" x="0px" y="0px"
	 width="100px" height="100px" viewBox="0 0 100 100" enable-background="new 0 0 100 100" xml:space="preserve">
<g>
	<path fill-rule="evenodd" clip-rule="evenodd" fill="#1175BD" d="M97.021,50.002c0,25.97-21.049,47.017-47.02,47.017
		c-25.97,0-47.023-21.047-47.023-47.017c0-25.967,21.054-47.021,47.023-47.021C75.973,2.981,97.021,24.036,97.021,50.002z"/>
	<g>
		<path fill-rule="evenodd" clip-rule="evenodd" fill="#FFFFFF" stroke="#1175BD" stroke-miterlimit="10" d="M53.137,77.254
			c-3.667,0-7.181,0-10.875,0c0,0.609,0.025,1.158,0,1.699c-0.071,1.273-0.72,1.945-1.973,1.963c-2.287,0.02-4.589,0.02-6.876,0
			c-1.321-0.014-1.985-0.689-2.012-2.041c-0.034-1.773,0.041-3.543-0.04-5.312c-0.028-0.52-0.343-1.109-0.679-1.545
			c-1.268-1.643-2.576-3.264-3.929-4.852c-0.305-0.375-0.795-0.783-1.254-0.838c-3.177-0.447-5.087-2.578-5.1-5.822
			c0-1.088-0.023-2.176,0.006-3.266c0.065-2.369,1.408-4.215,3.57-5.125c0.469-0.191,0.9-0.668,1.17-1.125
			c1.188-2.076,2.339-4.187,3.451-6.304c0.248-0.496,0.465-1.119,0.398-1.641c-0.325-2.3-0.771-4.594-1.119-6.899
			c-0.254-1.714,0.514-2.518,2.199-2.435c3.242,0.154,5.997,1.365,8.338,3.601c0.334,0.315,0.957,0.436,1.451,0.428
			c0.747-0.025,1.497-0.245,2.314-0.386c0.104-0.581,0.158-1.176,0.302-1.746c0.798-3.328,3.945-5.705,7.275-5.543
			c3.582,0.175,6.44,2.749,6.914,6.25c0.087,0.65,0.106,1.2,0.998,1.33c8.179,1.223,15.943,7.786,17.101,17.382
			c0.016,0.072,0.052,0.145,0.108,0.326c1.395,0.084,2.432-0.564,3.184-1.695c0.772-1.182,0.747-2.428,0.058-3.659
			c-0.176-0.312-0.434-0.573-0.646-0.868c-0.602-0.873-0.53-1.887,0.169-2.51c0.81-0.714,1.865-0.637,2.674,0.273
			c1.826,2.058,2.439,4.443,1.571,7.066c-0.905,2.742-2.885,4.387-5.715,4.961c-0.347,0.074-0.722,0.105-1.073,0.158
			c-0.071,0.006-0.152,0.047-0.289,0.1c-0.465,3.881-1.711,7.551-4.355,10.494c-1.658,1.82-3.698,3.305-5.637,4.852
			c-0.521,0.41-0.852,0.736-0.817,1.422c0.049,0.965,0.034,1.934,0,2.9c-0.042,1.404-0.689,2.055-2.091,2.068
			c-2.133,0.02-4.273,0.004-6.402,0.004c-1.729-0.004-2.328-0.598-2.371-2.297C53.131,78.195,53.137,77.764,53.137,77.254z
			 M60.384,77.232c0-0.688,0.054-1.33-0.013-1.951c-0.194-1.783,0.47-2.834,2.172-3.658c6.213-3.051,9.744-10.393,8.463-17.189
			c-1.297-6.88-6.649-11.968-13.925-13.268c-0.871-0.151-1.422-0.011-2.026,0.745c-2.746,3.432-8.094,3.561-10.887,0.193
			c-0.883-1.068-1.731-1.215-2.897-0.92c-0.536,0.14-1.122,0.18-1.643,0.377c-1.311,0.514-2.268,0.182-3.139-0.941
			c-1.158-1.482-2.673-2.516-4.696-2.979c0.345,2.129,0.606,4.15,1.019,6.145c0.211,1.033-0.086,1.785-0.765,2.506
			c-1.891,2.005-3.119,4.368-3.803,7.037c-0.442,1.742-0.621,1.895-2.404,2.109c-1.2,0.154-1.769,0.762-1.81,1.998
			c-0.022,0.807,0,1.609,0,2.418c0,2.379,0.4,2.822,2.8,2.809c1.223-0.006,2.016,0.438,2.55,1.592
			c1.014,2.23,2.496,4.143,4.44,5.627c0.899,0.686,1.248,1.496,1.218,2.594c-0.056,1.557-0.021,3.119-0.021,4.736
			c1.263,0,2.401,0,3.637,0c0-1.971-0.045-3.857,0.013-5.746c0.021-1.141,0.787-1.889,1.773-1.896
			c0.992-0.004,1.74,0.732,1.812,1.861c0.041,0.664,0.011,1.33,0.011,2.037c3.714,0,7.228,0,10.81,0
			c0.04-0.723,0.02-1.373,0.133-1.99c0.206-1.301,1.625-2.029,2.613-1.252c0.489,0.379,0.854,1.176,0.906,1.818
			c0.12,1.707,0.045,3.422,0.045,5.189C58.029,77.232,59.144,77.232,60.384,77.232z M49.466,40.916
			c1.984,0.026,3.617-1.567,3.647-3.553c0.041-1.987-1.557-3.622-3.54-3.657c-1.982-0.033-3.626,1.562-3.659,3.548
			C45.881,39.232,47.477,40.88,49.466,40.916z"/>
		<path fill-rule="evenodd" clip-rule="evenodd" fill="#FFFFFF" stroke="#1175BD" stroke-miterlimit="10" d="M63.936,33.559
			c-3.952-0.03-7.207-3.34-7.167-7.287c0.037-4.023,3.358-7.271,7.381-7.203c3.949,0.066,7.192,3.418,7.113,7.354
			C71.172,30.414,67.917,33.606,63.936,33.559z M67.618,26.299c-0.014-1.977-1.655-3.613-3.617-3.602
			c-1.969,0.004-3.604,1.657-3.592,3.631c0.002,1.978,1.647,3.615,3.613,3.607C65.996,29.93,67.626,28.278,67.618,26.299z"/>
		<path fill-rule="evenodd" clip-rule="evenodd" fill="#FFFFFF" stroke="#1175BD" stroke-miterlimit="10" d="M49.434,51.805
			c-1.646,0-3.3,0.021-4.943-0.008c-1.467-0.027-2.203-0.666-2.186-1.823c0.012-1.12,0.719-1.769,2.108-1.782
			c3.417-0.028,6.825-0.028,10.246,0c1.362,0.014,2.073,0.705,2.069,1.821c-0.005,1.112-0.733,1.756-2.113,1.784
			C52.887,51.832,51.162,51.797,49.434,51.805z"/>
		<path fill-rule="evenodd" clip-rule="evenodd" fill="#FFFFFF" stroke="#1175BD" stroke-miterlimit="10" d="M35.002,53.584
			c0.019,0.971-0.735,1.777-1.702,1.834c-1.012,0.049-1.872-0.754-1.889-1.76c-0.018-1.021,0.804-1.854,1.821-1.836
			C34.195,51.832,34.982,52.619,35.002,53.584z"/>
	</g>
</g>
</svg>
