<?xml version="1.0" encoding="utf-8"?>
<!-- Generator: Adobe Illustrator 16.0.0, SVG Export Plug-In . SVG Version: 6.00 Build 0)  -->
<!DOCTYPE svg PUBLIC "-//W3C//DTD SVG 1.1//EN" "http://www.w3.org/Graphics/SVG/1.1/DTD/svg11.dtd">
<svg version="1.1" id="Capa_1" xmlns="http://www.w3.org/2000/svg" xmlns:xlink="http://www.w3.org/1999/xlink" x="0px" y="0px"
	 width="100px" height="100px" viewBox="0 0 100 100" enable-background="new 0 0 100 100" xml:space="preserve">
<g>
	<path fill-rule="evenodd" clip-rule="evenodd" fill="#1175BD" d="M96.078,49.999c0,25.452-20.63,46.079-46.079,46.079
		c-25.448,0-46.078-20.627-46.078-46.079c0-25.446,20.63-46.077,46.078-46.077C75.448,3.922,96.078,24.553,96.078,49.999z"/>
	<g>
		<g>
			<path fill="#FFFFFF" d="M51.784,58.692c1.135-0.083,2.163-0.659,2.838-1.588l10.19-14.097c0.321-0.426,0.267-1.03-0.105-1.408
				c-0.38-0.377-0.981-0.421-1.414-0.107L49.198,51.689c-0.924,0.672-1.496,1.703-1.588,2.837c-0.08,1.133,0.32,2.243,1.125,3.046
				c0.732,0.73,1.714,1.133,2.743,1.133C51.577,58.705,51.679,58.705,51.784,58.692z M49.774,54.695
				c0.049-0.5,0.303-0.955,0.7-1.248l8.601-6.218l-6.213,8.597c-0.298,0.402-0.746,0.66-1.253,0.697
				c-0.5,0.029-0.981-0.146-1.339-0.494C49.919,55.677,49.739,55.191,49.774,54.695z"/>
			<path fill="#FFFFFF" d="M76.175,38.631c-0.012-0.023-0.012-0.048-0.019-0.071c-0.019-0.024-0.036-0.036-0.052-0.054
				c-1.098-1.89-2.405-3.646-3.881-5.234l2.337-2.346l1.544,1.548l4.608-4.623l-4.608-4.622l-4.623,4.622l1.537,1.535l-2.343,2.344
				c-1.583-1.474-3.346-2.782-5.237-3.885c-0.01-0.012-0.027-0.03-0.046-0.042c-0.022-0.019-0.046-0.019-0.071-0.03
				c-3.367-1.942-7.154-3.238-11.187-3.711v-1.296h1.636c1.5,0,2.718-1.217,2.718-2.716c0-1.504-1.218-2.721-2.718-2.721h-9.807
				c-1.499,0-2.727,1.217-2.727,2.721c0,1.499,1.228,2.716,2.727,2.716h1.637v1.259c-1.176,0.133-2.352,0.317-3.51,0.588
				c-0.586,0.133-0.961,0.721-0.818,1.308c0.13,0.581,0.717,0.953,1.301,0.81c1.006-0.229,2.01-0.401,3.027-0.516l1.17-0.09
				c0.355-0.029,0.685-0.047,1.004-0.06v2.15c0,0.601,0.486,1.088,1.088,1.088c0.61,0,1.088-0.487,1.088-1.088V26.07
				c4.102,0.186,7.956,1.288,11.393,3.101l-1.084,1.852c-0.295,0.521-0.111,1.188,0.408,1.486c0.17,0.103,0.36,0.152,0.537,0.152
				c0.381,0,0.746-0.195,0.947-0.542l1.074-1.858c3.408,2.164,6.297,5.055,8.454,8.467l-1.85,1.067
				c-0.514,0.305-0.692,0.964-0.396,1.481c0.205,0.357,0.566,0.544,0.943,0.544c0.191,0,0.381-0.033,0.544-0.138l1.859-1.073
				c1.841,3.479,2.942,7.405,3.105,11.565h-2.151c-0.602,0-1.084,0.487-1.084,1.085c0,0.607,0.482,1.087,1.084,1.087h2.151
				c-0.163,4.161-1.265,8.082-3.105,11.565l-1.859-1.072c-0.519-0.307-1.181-0.121-1.487,0.4c-0.297,0.521-0.118,1.188,0.4,1.488
				l1.845,1.066c-2.15,3.405-5.046,6.307-8.454,8.466l-1.074-1.853c-0.296-0.526-0.97-0.695-1.479-0.396
				c-0.525,0.295-0.709,0.972-0.4,1.482l1.07,1.865c-3.428,1.811-7.291,2.907-11.393,3.094v-2.143c0-0.605-0.478-1.096-1.088-1.096
				c-0.597,0-1.088,0.49-1.088,1.096v2.146c-1.736-0.053-3.48-0.27-5.189-0.676c-0.596-0.132-1.178,0.238-1.312,0.833
				c-0.143,0.575,0.232,1.163,0.818,1.301c2.176,0.497,4.389,0.755,6.594,0.755c0.06,0,0.107-0.005,0.154-0.005l0.023,0.005
				l0.028-0.005c5.239-0.037,10.146-1.458,14.396-3.893c0.035-0.018,0.07-0.029,0.106-0.047c0.019-0.012,0.023-0.036,0.046-0.048
				c4.412-2.561,8.076-6.23,10.647-10.625c0.019-0.036,0.049-0.061,0.065-0.09c0.012-0.023,0.012-0.048,0.023-0.072
				c2.495-4.317,3.92-9.3,3.92-14.631C80.095,47.936,78.67,42.942,76.175,38.631z M76.097,26.315l1.539,1.535l-1.539,1.535
				l-1.541-1.535L76.097,26.315z M49.774,23.875V20.59h-3.811c-0.301,0-0.536-0.247-0.536-0.54c0-0.306,0.235-0.546,0.536-0.546
				h9.807c0.296,0,0.542,0.24,0.542,0.546c0,0.293-0.246,0.54-0.542,0.54h-3.82v3.285c-0.373-0.012-0.732-0.018-1.088-0.018
				c-0.028,0-0.059,0-0.092,0c-0.026,0-0.049,0-0.086,0c-0.178,0-0.355,0.018-0.531,0.018
				C50.023,23.875,49.911,23.875,49.774,23.875z"/>
			<path fill="#FFFFFF" d="M41.062,32.57h-5.45c-0.594,0-1.081,0.484-1.081,1.09c0,0.601,0.487,1.092,1.081,1.092h5.45
				c0.603,0,1.093-0.491,1.093-1.092C42.154,33.055,41.664,32.57,41.062,32.57z"/>
			<path fill="#FFFFFF" d="M41.062,40.189H30.175c-0.604,0-1.086,0.492-1.086,1.087c0,0.605,0.482,1.097,1.086,1.097h10.887
				c0.603,0,1.093-0.491,1.093-1.097C42.154,40.682,41.664,40.189,41.062,40.189z"/>
			<path fill="#FFFFFF" d="M41.062,47.816H24.726c-0.598,0-1.079,0.486-1.079,1.091c0,0.6,0.481,1.092,1.079,1.092h16.336
				c0.603,0,1.093-0.492,1.093-1.092C42.154,48.303,41.664,47.816,41.062,47.816z"/>
			<path fill="#FFFFFF" d="M41.062,55.438H20.37c-0.6,0-1.084,0.485-1.084,1.092c0,0.604,0.484,1.09,1.084,1.09h20.691
				c0.603,0,1.093-0.485,1.093-1.09C42.154,55.923,41.664,55.438,41.062,55.438z"/>
			<path fill="#FFFFFF" d="M41.062,63.063H26.903c-0.596,0-1.092,0.48-1.092,1.085c0,0.606,0.496,1.092,1.092,1.092h14.158
				c0.603,0,1.093-0.485,1.093-1.092C42.154,63.544,41.664,63.063,41.062,63.063z"/>
			<path fill="#FFFFFF" d="M41.062,70.691h-7.626c-0.596,0-1.086,0.479-1.086,1.084c0,0.595,0.49,1.092,1.086,1.092h7.626
				c0.603,0,1.093-0.497,1.093-1.092C42.154,71.171,41.664,70.691,41.062,70.691z"/>
		</g>
	</g>
</g>
</svg>
