<?xml version="1.0" encoding="utf-8"?>
<!-- Generator: Adobe Illustrator 16.0.0, SVG Export Plug-In . SVG Version: 6.00 Build 0)  -->
<!DOCTYPE svg PUBLIC "-//W3C//DTD SVG 1.1//EN" "http://www.w3.org/Graphics/SVG/1.1/DTD/svg11.dtd">
<svg version="1.1" id="Capa_1" xmlns="http://www.w3.org/2000/svg" xmlns:xlink="http://www.w3.org/1999/xlink" x="0px" y="0px"
	 width="150px" height="80px" viewBox="0 0 150 80" enable-background="new 0 0 150 80" xml:space="preserve">
<path fill="#164193" d="M148.853,26.583c-2.01-11.546-36.703-15.15-77.493-8.048c-17.13,2.983-32.597,7.384-44.642,12.336
	c1.85,0.041,3.223,0.465,4.056,1.296c0.651,0.653,0.981,1.549,0.981,2.665v1.145h-3.999v-1.012c0-0.843-0.505-1.365-1.401-1.365
	c-0.752,0-1.216,0.34-1.364,1.008c-0.042,0.187-0.054,0.506,0.016,0.799c0.428,1.75,6.367,2.835,7.014,6.065
	c0.085,0.416,0.2,1.305,0.019,2.577c-0.371,2.603-2.659,3.608-5.571,3.608c-4.065,0-5.717-1.927-5.717-4.58l0.003-1.256h4.288
	l0.002,1.565c0,0.878,0.639,1.364,1.51,1.364c0.825,0,1.306-0.332,1.473-1.013c0.077-0.312,0.111-0.771-0.029-1.123
	c-0.793-1.992-6.34-2.921-7.022-6.139c-0.153-0.724-0.165-1.339-0.039-2.118c0.069-0.423,0.199-0.783,0.355-1.113
	C7.931,39.495,0.115,46.369,1.147,52.306c2.013,11.547,36.706,15.147,77.493,8.045c17.93-3.121,34.048-7.792,46.317-13.027
	c-0.179,0.009-0.35,0.026-0.534,0.026c-2.792,0-5.284-1.045-5.543-3.898c-0.046-0.52-0.055-0.737-0.056-1.034l0.001-6.559
	c0-0.282,0.033-0.778,0.064-1.035c0.331-2.758,2.511-3.895,5.533-3.895c2.339,0,5.206,0.671,5.521,3.897
	c0.042,0.405,0.038,0.837,0.036,0.979c0,0.001,0,0.001,0,0.003v0.616h-4.04v-0.922V35.5c0-0.02-0.005-0.365-0.051-0.581
	c-0.065-0.33-0.347-1.092-1.497-1.092c-1.136,0-1.431,0.764-1.505,1.093c-0.042,0.181-0.062,0.439-0.062,0.727v7.129
	c-0.004,0.248,0.009,0.44,0.033,0.584c0.021,0.113,0.225,1.095,1.547,1.095c1.313,0,1.516-0.981,1.534-1.095
	c0.034-0.193,0.039-0.424,0.037-0.584v-2.208h-1.589v-2.379h5.62c0,0,0,4.229,0,4.231c-0.002,0.288-0.006,0.503-0.054,1.032
	c-0.068,0.748-0.305,1.382-0.674,1.924C142.298,39.197,149.872,32.434,148.853,26.583z M43.089,47.048l-2.046-13.904H40.97
	l-2.098,13.904h-4.314l2.9-15.702h7.036l2.883,15.702H43.089z M63.833,47.048l-0.094-13.635h-0.069L61.13,47.048h-4.047
	l-2.525-13.635h-0.071l-0.092,13.635h-4.012l0.348-15.702h6.451l1.879,11.665h0.091l1.882-11.665h6.448l0.346,15.702H63.833z
	 M82.72,44.005c-0.432,3.042-3.411,3.572-5.517,3.572c-3.497,0-5.659-1.494-5.659-4.535l0.002-1.24h4.236l0.003,1.545
	c0,0.839,0.592,1.353,1.505,1.353c0.814,0,1.292-0.327,1.458-0.999c0.075-0.312,0.108-0.771-0.027-1.114
	c-0.78-1.953-6.284-2.91-6.952-6.078c-0.154-0.719-0.164-1.328-0.039-2.099c0.466-2.872,3.222-3.469,5.44-3.469
	c1.984,0,3.429,0.434,4.295,1.3c0.646,0.647,0.974,1.535,0.974,2.638v1.133h-3.962v-1c0-0.855-0.53-1.351-1.385-1.351
	c-0.757,0-1.215,0.337-1.364,0.999c-0.031,0.139-0.061,0.465,0.02,0.79c0.423,1.741,6.31,2.805,6.955,6.005
	C82.784,41.862,82.898,42.739,82.72,44.005z M97.391,42.579c0.006,0.295-0.023,0.883-0.039,1.033
	c-0.241,2.587-2.092,3.902-5.485,3.902c-3.407,0-5.258-1.315-5.499-3.902c-0.016-0.15-0.046-0.738-0.038-1.03V31.343h4.053v11.593
	c-0.005,0.259,0.008,0.452,0.034,0.584c0.051,0.259,0.307,1.095,1.45,1.095c1.14,0,1.396-0.836,1.45-1.093
	c0.023-0.134,0.035-0.337,0.035-0.586V31.343h4.039C97.391,31.343,97.391,42.582,97.391,42.579z M114.852,46.888h-5.64
	l-3.785-12.438h-0.063l0.21,12.438h-3.931V31.346h5.876l3.498,11.947h0.083l-0.207-11.947h3.959V46.888z"/>
</svg>
