<?xml version="1.0" encoding="utf-8"?>
<!-- Generator: Adobe Illustrator 16.0.0, SVG Export Plug-In . SVG Version: 6.00 Build 0)  -->
<!DOCTYPE svg PUBLIC "-//W3C//DTD SVG 1.1//EN" "http://www.w3.org/Graphics/SVG/1.1/DTD/svg11.dtd">
<svg version="1.1" id="Capa_1" xmlns="http://www.w3.org/2000/svg" xmlns:xlink="http://www.w3.org/1999/xlink" x="0px" y="0px"
	 width="150px" height="80px" viewBox="0 0 150 80" enable-background="new 0 0 150 80" xml:space="preserve">
<g>
	<polygon fill="#1D1719" points="39.612,17.864 32.252,44.762 27.974,44.762 22.772,25.223 17.492,44.762 13.215,44.762 
		5.855,17.864 10.094,17.864 15.335,37.4 20.613,17.864 24.814,17.864 30.132,37.4 35.373,17.864 39.612,17.864 	"/>
	<path fill="#1D1719" d="M41.574,17.941l4.237-0.348v6.589l-0.076,2.466h0.154c1.965-0.731,3.546-1.078,5.472-1.078
		c3.431,0,5.742,1.542,5.742,7.435v11.757h-4.238V33.355c0-3.545-1.734-4.007-3.698-4.007c-1.234,0-2.275,0.27-3.355,0.577v14.839
		h-4.237V17.941L41.574,17.941z"/>
	<path fill="#1D1719" d="M60.801,25.839h4.239v18.922h-4.239V25.839L60.801,25.839z M62.921,18.211c2.196,0,2.544,1.27,2.544,2.696
		c0,1.425-0.464,2.737-2.544,2.737c-2.081,0-2.506-1.312-2.506-2.737C60.415,19.481,60.801,18.211,62.921,18.211L62.921,18.211z"/>
	<path fill="#1D1719" d="M68.623,25.839h2.891l0.579,1.543h0.271c1.115-0.965,2.889-1.811,5.201-1.811c0.27,0,0.578,0,0.885,0.038
		v4.162c-0.77-0.114-1.579-0.23-2.389-0.23c-1.155,0-2.08,0.268-3.198,0.771v14.453h-4.239V25.839L68.623,25.839z"/>
	<polygon fill="#1D1719" points="80.259,44.764 80.259,17.941 84.499,17.595 84.499,44.764 80.259,44.764 	"/>
	<path fill="#1D1719" d="M118.636,35.397c0-3.584-0.576-6.512-3.969-6.512c-3.428,0-4.275,2.813-4.275,6.512
		c0,3.429,0.693,6.398,4.085,6.398C117.867,41.795,118.636,38.981,118.636,35.397L118.636,35.397z M114.63,25.571
		c6.011,0,8.324,3.545,8.324,9.826c0,5.895-2.158,9.75-8.402,9.75c-6.243,0-8.438-3.854-8.438-9.75
		C106.113,29.116,108.62,25.571,114.63,25.571L114.63,25.571z"/>
	<path fill="#1D1719" d="M137.634,35.397c0-3.584-0.579-6.512-3.969-6.512c-3.43,0-4.276,2.813-4.276,6.512
		c0,3.429,0.691,6.398,4.083,6.398S137.634,38.981,137.634,35.397L137.634,35.397z M133.626,25.571c6.012,0,8.323,3.545,8.323,9.826
		c0,5.895-2.159,9.75-8.4,9.75c-6.243,0-8.439-3.854-8.439-9.75C125.109,29.116,127.615,25.571,133.626,25.571L133.626,25.571z"/>
	<polygon fill="#1D1719" points="144.761,44.764 144.761,17.941 148.998,17.595 148.998,44.764 144.761,44.764 	"/>
	<path fill="#EDAA00" d="M115.656,5.225c-3.532-3.745-16.738,3.375-30.214,14.497v1.446C98.64,10.153,111.061,3.669,113.926,6.709
		c1.455,1.543,0.175,6.374-3.119,11.98c-0.476,0.218-0.999,0.664-1.485,1.363c-4.188,6.021-10.325,13.333-17.002,19.629
		C75.145,55.876,58.514,65.706,55.146,62.134c-1.919-2.031,1.229-8.614,6.972-16.428h-1.593c-6.088,8.305-9.387,15.471-6.949,18.058
		c4.243,4.495,23.481-6.491,40.623-22.658c7.769-7.321,13.668-13.537,17.306-19.056c1.052-1.595,1.095-2.723,0.654-3.227
		C116.278,12.422,117.755,7.451,115.656,5.225L115.656,5.225z"/>
	<path fill="#1D1719" d="M92.165,30.195c1.041-0.346,2.08-0.538,3.161-0.538c2.186,0,3.603,0.627,4.105,2.74
		c1.099-1.215,2.162-2.437,3.184-3.649c-1.187-2.188-3.09-3.176-5.362-3.176c-2.12,0-4.276,0.962-5.552,1.656h-0.19l-0.347-1.388
		h-3.2V43.66c1.345-1.19,2.698-2.426,4.057-3.701C92.165,35.911,92.165,33.938,92.165,30.195L92.165,30.195z"/>
	<path fill="#1D1719" d="M99.59,35.895c-0.294,4.291-1.935,5.436-4.304,5.436c-0.478,0-0.902-0.005-1.313-0.015
		c-1.985,1.865-3.996,3.658-6.008,5.367v7.095l4.24-0.461v-8.671h0.114c1.195,0.229,2.503,0.386,3.699,0.386
		c4.934,0,7.899-3.275,7.899-9.904c0-1.268-0.101-2.4-0.287-3.399C102.372,33.075,101.025,34.461,99.59,35.895L99.59,35.895z"/>
	<path fill="#1D1719" d="M34.896,12.901c0.192-0.175,0.33-0.34,0.363-0.604c0.032-0.264-0.126-0.453-0.378-0.545
		c-0.466-0.175-1.061-0.01-1.475,0.131c-0.222,0.078-0.454,0.15-0.696,0.222c-0.483,0.14-1.003,0.267-1.551,0.374
		c-0.547,0.112-1.119,0.206-1.707,0.285c-0.592,0.075-1.197,0.136-1.81,0.18c-0.612,0.044-1.233,0.071-1.846,0.079
		c-0.186,0.002-0.368,0.005-0.553,0.005c-0.549,0-1.092-0.007-1.629-0.023c-0.765-0.023-1.515-0.061-2.236-0.114
		c-0.72-0.053-1.414-0.122-2.071-0.202c-0.654-0.081-1.273-0.174-1.846-0.281c-0.573-0.104-1.097-0.22-1.571-0.345
		c-0.444-0.116-0.841-0.239-1.188-0.368c-0.18-0.067-0.355-0.109-0.552-0.107c-0.168,0-0.399,0.045-0.49,0.209
		c-0.095,0.169,0.013,0.362,0.125,0.486c0.129,0.14,0.28,0.231,0.458,0.301c0.085,0.036,0.172,0.07,0.261,0.103
		c0.392,0.15,0.82,0.291,1.28,0.42c0.465,0.134,0.961,0.256,1.484,0.365c0.528,0.113,1.083,0.213,1.659,0.301
		c0.583,0.09,1.187,0.167,1.806,0.23c0.629,0.064,1.272,0.117,1.922,0.151c0.659,0.04,1.326,0.061,1.996,0.071
		c0.68,0.008,1.361,0.002,2.039-0.02c0.682-0.019,1.36-0.056,2.026-0.106c0.491-0.036,0.975-0.08,1.452-0.135
		c0.117-0.011,0.233-0.024,0.352-0.04c-0.001,0.249,0.316,0.396,0.51,0.458c0.246,0.077,0.482,0.097,0.739,0.079
		c1.042-0.078,2.061-0.179,3.042-0.302c0.996-0.125,1.953-0.273,2.859-0.442s1.757-0.36,2.542-0.57
		c0.786-0.209,1.503-0.438,2.14-0.683c0.637-0.244,1.193-0.504,1.661-0.775c0.466-0.27,0.842-0.555,1.116-0.847
		c0.281-0.292,0.458-0.591,0.534-0.894c0.072-0.304,0.045-0.611-0.089-0.914c-0.137-0.305-0.375-0.608-0.719-0.905
		c-0.345-0.296-0.792-0.589-1.339-0.87s-1.194-0.55-1.931-0.805c-0.737-0.254-1.567-0.493-2.478-0.715
		c-0.909-0.219-1.897-0.42-2.952-0.596c-1.057-0.179-2.18-0.335-3.353-0.463c-1.172-0.131-2.395-0.234-3.65-0.31
		c-1.256-0.075-2.544-0.125-3.847-0.143c-1.301-0.02-2.616-0.011-3.924,0.03c-1.307,0.039-2.607,0.108-3.881,0.206
		c-1.271,0.1-2.517,0.227-3.714,0.383c-1.199,0.155-2.35,0.337-3.435,0.544C9.266,5.597,8.248,5.833,7.311,6.087
		C6.377,6.343,5.523,6.622,4.769,6.915C4.015,7.212,3.358,7.528,2.813,7.856C2.267,8.184,1.829,8.525,1.514,8.875
		C1.195,9.226,0.997,9.583,0.922,9.949c-0.075,0.362-0.025,0.727,0.149,1.092c0.175,0.365,0.476,0.727,0.9,1.08
		c0.423,0.354,0.972,0.7,1.635,1.033c0.665,0.331,1.445,0.649,2.333,0.949c0.892,0.3,1.885,0.583,2.972,0.842
		c1.088,0.258,2.271,0.493,3.531,0.701c1.258,0.208,2.596,0.388,3.987,0.539c1.389,0.149,2.835,0.267,4.33,0.354
		c0.214,0.013,0.43,0.025,0.646,0.037c0.204,0.011,0.385-0.012,0.571-0.095c0.167-0.074,0.341-0.212,0.357-0.404
		c0.016-0.201-0.145-0.347-0.309-0.43c-0.181-0.092-0.362-0.127-0.562-0.139c-0.76-0.049-1.512-0.106-2.248-0.174
		c-0.946-0.089-1.867-0.195-2.758-0.319c-0.886-0.121-1.738-0.26-2.549-0.415c-0.801-0.151-1.561-0.318-2.274-0.498
		c-0.581-0.147-1.132-0.303-1.643-0.468c-1.394-0.445-2.512-0.948-3.295-1.487c-0.342-0.233-0.619-0.473-0.832-0.716
		c-0.209-0.244-0.353-0.489-0.43-0.736c-0.075-0.246-0.085-0.492-0.027-0.739c0.057-0.242,0.18-0.483,0.367-0.721
		c0.186-0.238,0.438-0.473,0.752-0.7C6.833,8.312,7.203,8.092,7.63,7.882c0.424-0.212,0.907-0.413,1.441-0.605
		c0.292-0.106,0.6-0.209,0.923-0.307c0.582-0.178,1.209-0.345,1.882-0.5c0.357-0.083,0.727-0.162,1.11-0.237
		c0.699-0.138,1.438-0.264,2.208-0.373c0.767-0.112,1.563-0.209,2.38-0.292c0.807-0.077,1.634-0.144,2.476-0.194
		c0.838-0.048,1.689-0.081,2.545-0.101c0.844-0.016,1.692-0.019,2.539-0.004c0.839,0.012,1.674,0.042,2.497,0.087
		c0.816,0.042,1.616,0.104,2.397,0.177c0.774,0.072,1.531,0.159,2.258,0.259c0.721,0.101,1.413,0.214,2.073,0.339
		c1.297,0.248,2.459,0.541,3.441,0.874c0.961,0.326,1.747,0.686,2.322,1.067c0.561,0.375,0.921,0.769,1.06,1.169
		c0.136,0.394,0.06,0.791-0.229,1.176c-0.283,0.379-0.771,0.744-1.448,1.086c-0.659,0.333-1.501,0.643-2.493,0.913
		C36.366,12.596,35.656,12.758,34.896,12.901L34.896,12.901z"/>
	<path fill="#1D1719" d="M13.604,9.496c-0.208,0.085-0.412,0.14-0.643,0.145c-0.184,0.006-0.48-0.027-0.586-0.217
		c-0.112-0.198,0.063-0.425,0.194-0.552c0.16-0.152,0.339-0.263,0.54-0.355c2.778-1.298,6.581-1.742,9.585-1.742h0.332
		c1.097,0.006,2.19,0.056,3.235,0.146c1.009,0.087,1.97,0.21,2.847,0.368c0.844,0.153,1.607,0.338,2.254,0.546
		c0.623,0.202,1.139,0.426,1.524,0.667c0.368,0.229,0.613,0.475,0.724,0.722c0.044,0.098,0.065,0.196,0.065,0.295
		c0,0.141-0.047,0.283-0.14,0.422c-0.153,0.225-0.431,0.446-0.829,0.65c-0.379,0.197-0.866,0.379-1.449,0.541
		c-0.552,0.155-1.192,0.287-1.894,0.395c-0.667,0.104-1.392,0.182-2.145,0.232c-0.363,0.023-0.729,0.041-1.099,0.054
		c-0.293,0.007-0.585,0.012-0.88,0.012c-0.068,0-0.134,0-0.203-0.003c-0.33,0-0.66-0.009-0.987-0.026
		c-0.318-0.015-0.633-0.034-0.938-0.063c-0.585-0.05-1.142-0.125-1.649-0.218c-0.475-0.089-0.905-0.195-1.267-0.316
		c-0.339-0.113-0.621-0.239-0.825-0.374c-0.192-0.125-0.318-0.257-0.372-0.39c-0.047-0.125-0.031-0.251,0.051-0.375
		c0.078-0.111,0.214-0.222,0.407-0.322c0.173-0.091,0.396-0.179,0.661-0.253c0.239-0.067,0.508-0.126,0.81-0.17
		c0.265-0.042,0.553-0.073,0.85-0.091c0.203-0.013,0.409-0.021,0.62-0.021c0.207,0,0.415,0.008,0.618,0.021
		c0.299,0.018,0.585,0.049,0.85,0.091c0.299,0.044,0.571,0.103,0.81,0.17c0.262,0.074,0.486,0.162,0.662,0.253
		c0.191,0.101,0.326,0.211,0.404,0.322c0.084,0.124,0.101,0.249,0.052,0.375c-0.032,0.079-0.088,0.156-0.169,0.233
		c0.093-0.007,0.183-0.013,0.273-0.021c0.03-0.001,0.059-0.004,0.088-0.006c0.187-0.02,0.374-0.044,0.557-0.076
		c0.182-0.031,0.361-0.067,0.528-0.112c0.169-0.042,0.329-0.091,0.476-0.147c0.145-0.057,0.277-0.119,0.392-0.185
		c0.113-0.066,0.209-0.135,0.283-0.212c0.076-0.075,0.127-0.154,0.157-0.237c0.029-0.08,0.033-0.165,0.009-0.252
		c-0.025-0.084-0.075-0.171-0.155-0.259c-0.077-0.086-0.183-0.176-0.32-0.258c-0.134-0.083-0.298-0.167-0.49-0.246
		c-0.191-0.078-0.411-0.152-0.654-0.222c-0.245-0.07-0.515-0.133-0.808-0.189c-0.292-0.059-0.607-0.108-0.941-0.149
		c-0.333-0.04-0.686-0.073-1.049-0.095c-0.364-0.023-0.743-0.035-1.126-0.038c-0.042-0.001-0.087-0.001-0.13-0.001
		C19.816,7.964,16.314,8.373,13.604,9.496L13.604,9.496z"/>
	<polygon fill="#1D1719" points="91.548,75.504 92.967,75.504 92.967,67.908 91.548,67.908 91.548,75.504 	"/>
	<polygon fill="#1D1719" points="95.295,75.499 95.295,67.907 99.873,67.907 99.873,69.086 96.711,69.086 96.711,71.008 
		99.487,71.008 99.487,72.132 96.711,72.132 96.711,75.499 95.295,75.499 	"/>
	<polygon fill="#1D1719" points="101.798,75.499 101.798,67.907 106.375,67.907 106.375,69.086 103.212,69.086 103.212,71.008 
		105.987,71.008 105.987,72.132 103.212,72.132 103.212,75.499 101.798,75.499 	"/>
	<path fill="#1D1719" d="M86.266,68.867c-0.247,0-0.586,0.069-0.766,0.11l-0.218,0.05v5.381l0.227,0.045
		c0.212,0.04,0.51,0.091,0.723,0.091c1.292,0,1.869-0.877,1.869-2.844C88.101,69.74,87.534,68.867,86.266,68.867L86.266,68.867z
		 M86.231,75.621c-0.305,0-1.915-0.083-2.367-0.106v-7.607c1.017-0.052,2.142-0.106,2.39-0.106c2.254,0,3.352,1.278,3.352,3.91
		C89.605,74.341,88.501,75.621,86.231,75.621L86.231,75.621z"/>
	<polygon fill="#1D1719" points="108.244,75.504 108.244,67.912 112.824,67.912 112.824,69.089 109.659,69.089 109.659,71.012 
		112.437,71.012 112.437,72.135 109.659,72.135 109.659,74.326 112.899,74.326 112.899,75.504 108.244,75.504 	"/>
	<polygon fill="#1D1719" points="121.975,75.504 121.975,67.912 126.552,67.912 126.552,69.089 123.389,69.089 123.389,71.012 
		126.164,71.012 126.164,72.135 123.389,72.135 123.389,74.326 126.627,74.326 126.627,75.504 121.975,75.504 	"/>
	<polygon fill="#1D1719" points="144.458,75.504 144.458,67.912 149.035,67.912 149.035,69.089 145.872,69.089 145.872,71.012 
		148.646,71.012 148.646,72.135 145.872,72.135 145.872,74.326 149.112,74.326 149.112,75.504 144.458,75.504 	"/>
	<polygon fill="#1D1719" points="34.882,75.504 36.299,75.504 36.299,67.912 34.882,67.912 34.882,75.504 	"/>
	<path fill="#1D1719" d="M116.294,71.671h0.613c1.075,0,1.62-0.454,1.62-1.353c0-1.052-0.61-1.264-1.598-1.264h-0.636V71.671
		L116.294,71.671z M118.767,75.505c-0.043-0.125-0.083-0.253-0.126-0.388l-0.015-0.052c-0.327-1.012-0.691-2.157-1.366-2.391
		l-0.041-0.014h-0.925v2.844h-1.419v-7.596h1.991c2.638,0,3.154,0.858,3.154,2.342c0,1.282-0.58,1.682-1.204,1.924l-0.61,0.235
		l0.584,0.294c0.521,0.263,0.895,1.128,1.256,1.963c0.117,0.274,0.229,0.532,0.342,0.763v0.075H118.767L118.767,75.505z"/>
	<path fill="#1D1719" d="M140.541,75.616c-2.572,0-3.72-1.188-3.72-3.854c0-2.595,1.397-3.966,4.043-3.966
		c0.633,0,1.082,0.109,1.448,0.218v1.199c-0.327-0.076-0.96-0.182-1.481-0.182c-1.322,0-2.506,0.203-2.506,2.675
		c0,2.479,1.249,2.687,2.421,2.687c0.575,0,1.056-0.103,1.562-0.212l0.093-0.021v1.228
		C141.975,75.474,141.211,75.616,140.541,75.616L140.541,75.616z"/>
	<polygon fill="#1D1719" points="69.47,75.504 69.47,72.135 66.286,72.135 66.286,75.504 64.873,75.504 64.873,67.912 
		66.286,67.912 66.286,71.012 69.47,71.012 69.47,67.912 70.885,67.912 70.885,75.504 69.47,75.504 	"/>
	<polygon fill="#1D1719" points="59.54,75.508 59.54,69.032 57.422,69.088 57.422,67.912 63.084,67.912 63.084,69.088 
		60.957,69.032 60.957,75.508 59.54,75.508 	"/>
	<polygon fill="#1D1719" points="12.658,75.504 12.658,67.912 17.238,67.912 17.238,69.089 14.074,69.089 14.074,71.012 
		16.85,71.012 16.85,72.135 14.074,72.135 14.074,74.326 17.312,74.326 17.312,75.504 12.658,75.504 	"/>
	<polygon fill="#1D1719" points="24.512,75.504 21.688,71.297 21.048,70.16 21.048,75.504 19.628,75.504 19.628,67.912 
		20.894,67.912 23.641,71.965 24.326,73.15 24.326,67.912 25.743,67.912 25.743,75.504 24.512,75.504 	"/>
	<polygon fill="#1D1719" points="43.481,75.504 40.659,71.297 40.016,70.16 40.016,75.504 38.6,75.504 38.6,67.912 39.863,67.912 
		42.613,71.965 43.295,73.15 43.295,67.912 44.715,67.912 44.715,75.504 43.481,75.504 	"/>
	<polygon fill="#1D1719" points="133.753,75.504 130.928,71.297 130.289,70.16 130.289,75.504 128.869,75.504 128.869,67.912 
		130.134,67.912 132.884,71.965 133.566,73.151 133.566,67.912 134.985,67.912 134.985,75.504 133.753,75.504 	"/>
	<path fill="#1D1719" d="M7.96,75.782c-0.686,0-1.447-0.129-2.053-0.247v-1.144c0.627,0.157,1.483,0.314,2.15,0.314
		c0.806,0,1.629-0.12,1.629-0.994c0-0.798-0.825-1.139-1.699-1.501c-1.056-0.438-2.251-0.934-2.251-2.315
		c0-1.957,1.774-2.183,3.108-2.183c0.608,0,1.326,0.116,1.794,0.222v1.201c-0.462-0.148-1.23-0.291-1.998-0.291
		c-0.778,0-1.575,0.109-1.575,0.917c0,0.639,0.715,0.944,1.543,1.302c1.16,0.498,2.472,1.06,2.472,2.648
		C11.082,75.183,10.178,75.782,7.96,75.782L7.96,75.782z"/>
	<path fill="#1D1719" d="M29.862,75.782c-0.688,0-1.449-0.129-2.053-0.247v-1.144c0.628,0.157,1.484,0.314,2.149,0.314
		c0.805,0,1.628-0.12,1.628-0.994c0-0.798-0.826-1.139-1.7-1.501c-1.055-0.438-2.253-0.934-2.253-2.315
		c0-1.957,1.776-2.183,3.113-2.183c0.607,0,1.326,0.116,1.794,0.222v1.201c-0.463-0.148-1.233-0.291-2.001-0.291
		c-0.778,0-1.574,0.109-1.574,0.917c0,0.639,0.716,0.946,1.543,1.302c1.16,0.498,2.472,1.06,2.472,2.648
		C32.98,75.183,32.078,75.782,29.862,75.782L29.862,75.782z"/>
	<polygon fill="#1D1719" points="73.323,75.504 73.323,67.916 77.901,67.916 77.901,69.092 74.741,69.092 74.741,71.013 
		77.515,71.013 77.515,72.136 74.741,72.136 74.741,74.327 77.977,74.327 77.977,75.504 73.323,75.504 	"/>
	<path fill="#1D1719" d="M50.409,75.616c-2.568,0-3.714-1.188-3.714-3.853c0-2.593,1.396-3.962,4.036-3.962
		c0.659,0,1.293,0.115,1.672,0.22v1.197c-0.39-0.079-1.214-0.184-1.706-0.184c-1.318,0-2.502,0.205-2.502,2.672
		c0,2.479,1.249,2.686,2.418,2.686c0.117,0,0.271-0.014,0.393-0.026l0.252-0.023v-2.199l-1.151,0.055v-1.174h2.381v4.363
		C51.969,75.485,51.052,75.616,50.409,75.616L50.409,75.616z"/>
</g>
</svg>
