<?xml version="1.0" encoding="utf-8"?>
<!-- Generator: Adobe Illustrator 16.0.0, SVG Export Plug-In . SVG Version: 6.00 Build 0)  -->
<!DOCTYPE svg PUBLIC "-//W3C//DTD SVG 1.1//EN" "http://www.w3.org/Graphics/SVG/1.1/DTD/svg11.dtd">
<svg version="1.1" id="Capa_1" xmlns="http://www.w3.org/2000/svg" xmlns:xlink="http://www.w3.org/1999/xlink" x="0px" y="0px"
	 width="130px" height="100px" viewBox="0 0 130 100" enable-background="new 0 0 130 100" xml:space="preserve">
<g>
	<path fill="#1175BD" d="M36.335,31.102h10.469c1.271,0,2.304-1.032,2.304-2.304c0-1.271-1.032-2.307-2.304-2.307H36.335
		c-1.271,0-2.307,1.035-2.307,2.307C34.028,30.069,35.064,31.102,36.335,31.102z M46.804,29.136H36.335
		c-0.187,0-0.341-0.151-0.341-0.338c0-0.188,0.154-0.339,0.341-0.339h10.469c0.187,0,0.339,0.151,0.339,0.339
		C47.143,28.984,46.99,29.136,46.804,29.136z"/>
	<path fill="#1175BD" d="M36.335,42.208h10.469c1.271,0,2.304-1.034,2.304-2.306c0-1.271-1.032-2.305-2.304-2.305H36.335
		c-1.271,0-2.307,1.034-2.307,2.305C34.028,41.173,35.064,42.208,36.335,42.208z M46.804,40.241H36.335
		c-0.187,0-0.341-0.151-0.341-0.339c0-0.187,0.154-0.339,0.341-0.339h10.469c0.187,0,0.339,0.153,0.339,0.339
		C47.143,40.09,46.99,40.241,46.804,40.241z"/>
	<path fill="#1175BD" d="M50.308,6.101H5.435c-1.624,0-2.946,1.322-2.946,2.948v81.904c0,1.624,1.322,2.946,2.946,2.946h44.873
		c1.627,0,2.948-1.322,2.948-2.946V9.049C53.256,7.422,51.935,6.101,50.308,6.101z M5.211,9.049c0-0.124,0.1-0.225,0.224-0.225
		h44.873c0.126,0,0.226,0.102,0.226,0.225v81.904c0,0.123-0.1,0.224-0.226,0.224H5.435c-0.121,0-0.224-0.102-0.224-0.224V9.049z"/>
	<path fill="#1175BD" d="M9.629,89.642h12.98c0.542,0,0.981-0.438,0.981-0.982c0-0.54-0.439-0.979-0.981-0.979H9.629
		c-0.332,0-0.603-0.271-0.603-0.607v-22.78c0-0.545-0.442-0.985-0.984-0.985c-0.541,0-0.979,0.44-0.979,0.985v22.78
		C7.062,88.491,8.212,89.642,9.629,89.642z"/>
	<path fill="#1175BD" d="M25.632,89.59c0.513,0,0.927-0.418,0.927-0.931c0-0.509-0.414-0.925-0.927-0.925
		c-0.509,0-0.925,0.416-0.925,0.925C24.707,89.172,25.123,89.59,25.632,89.59z"/>
	<path fill="#1175BD" d="M82.396,42.46v10.47c0,1.269,1.032,2.302,2.304,2.302c1.271,0,2.305-1.033,2.305-2.302V42.46
		c0-1.27-1.034-2.304-2.305-2.304C83.429,40.156,82.396,41.19,82.396,42.46z M84.36,52.931V42.46c0-0.187,0.152-0.34,0.34-0.34
		s0.339,0.153,0.339,0.34v10.47c0,0.186-0.151,0.337-0.339,0.337S84.36,53.116,84.36,52.931z"/>
	<path fill="#1175BD" d="M98.359,42.46v10.47c0,1.269,1.032,2.302,2.307,2.302c1.271,0,2.304-1.033,2.304-2.302V42.46
		c0-1.27-1.033-2.304-2.304-2.304C99.392,40.156,98.359,41.19,98.359,42.46z M100.326,52.931V42.46c0-0.187,0.153-0.34,0.34-0.34
		s0.339,0.153,0.339,0.34v10.47c0,0.186-0.152,0.337-0.339,0.337S100.326,53.116,100.326,52.931z"/>
	<path fill="#1175BD" d="M124.563,10.821H61.271c-1.624,0-2.948,1.322-2.948,2.949v77.183c0,1.624,1.324,2.946,2.948,2.946h63.292
		c1.627,0,2.948-1.322,2.948-2.946V13.771C127.512,12.144,126.19,10.821,124.563,10.821z M61.048,13.771
		c0-0.125,0.099-0.227,0.224-0.227h63.292c0.123,0,0.225,0.101,0.225,0.227v77.183c0,0.123-0.102,0.224-0.225,0.224H61.271
		c-0.121,0-0.224-0.102-0.224-0.224V13.771z"/>
	<rect x="91.446" y="11.864" fill="#1175BD" width="2.72" height="80.9"/>
	<path fill="#1175BD" d="M65.467,89.642h12.978c0.545,0,0.983-0.438,0.983-0.982c0-0.54-0.438-0.979-0.983-0.979H65.467
		c-0.333,0-0.604-0.271-0.604-0.607v-22.78c0-0.545-0.442-0.985-0.983-0.985c-0.542,0-0.982,0.44-0.982,0.985v22.78
		C62.897,88.491,64.05,89.642,65.467,89.642z"/>
	<path fill="#1175BD" d="M81.47,89.59c0.509,0,0.927-0.418,0.927-0.931c0-0.509-0.418-0.925-0.927-0.925
		c-0.511,0-0.926,0.416-0.926,0.925C80.544,89.172,80.959,89.59,81.47,89.59z"/>
</g>
</svg>
