<?xml version="1.0" encoding="utf-8"?>
<!-- Generator: Adobe Illustrator 16.0.0, SVG Export Plug-In . SVG Version: 6.00 Build 0)  -->
<!DOCTYPE svg PUBLIC "-//W3C//DTD SVG 1.1//EN" "http://www.w3.org/Graphics/SVG/1.1/DTD/svg11.dtd">
<svg version="1.1" id="Capa_1" xmlns="http://www.w3.org/2000/svg" xmlns:xlink="http://www.w3.org/1999/xlink" x="0px" y="0px"
	 width="250px" height="100px" viewBox="0 0 250 100" enable-background="new 0 0 250 100" xml:space="preserve">
<g>
	<g>
		<path fill="#1175BD" d="M212.57,41.178h4.887c0.593,0,1.075-0.482,1.075-1.076s-0.482-1.076-1.075-1.076h-4.887
			c-0.594,0-1.077,0.482-1.077,1.076S211.977,41.178,212.57,41.178z M217.457,40.261h-4.887c-0.087,0-0.16-0.072-0.16-0.159
			s0.073-0.158,0.16-0.158h4.887c0.087,0,0.157,0.071,0.157,0.158S217.544,40.261,217.457,40.261z"/>
		<path fill="#1175BD" d="M212.57,46.362h4.887c0.593,0,1.075-0.483,1.075-1.076c0-0.594-0.482-1.076-1.075-1.076h-4.887
			c-0.594,0-1.077,0.482-1.077,1.076C211.493,45.879,211.977,46.362,212.57,46.362z M217.457,45.444h-4.887
			c-0.087,0-0.16-0.071-0.16-0.158c0-0.088,0.073-0.158,0.16-0.158h4.887c0.087,0,0.157,0.07,0.157,0.158
			C217.614,45.373,217.544,45.444,217.457,45.444z"/>
		<path fill="#1175BD" d="M219.093,29.506h-20.948c-0.758,0-1.376,0.617-1.376,1.377v38.235c0,0.758,0.618,1.376,1.376,1.376h20.948
			c0.76,0,1.377-0.618,1.377-1.376V30.883C220.47,30.123,219.853,29.506,219.093,29.506z M198.039,30.883
			c0-0.058,0.048-0.105,0.105-0.105h20.948c0.059,0,0.104,0.048,0.104,0.105v38.235c0,0.059-0.046,0.104-0.104,0.104h-20.948
			c-0.057,0-0.105-0.048-0.105-0.104V30.883z"/>
		<path fill="#1175BD" d="M200.103,68.507h6.059c0.254,0,0.459-0.205,0.459-0.459c0-0.253-0.205-0.457-0.459-0.457h-6.059
			c-0.155,0-0.281-0.128-0.281-0.283V56.673c0-0.253-0.206-0.46-0.46-0.46c-0.252,0-0.457,0.207-0.457,0.46v10.635
			C198.904,67.969,199.44,68.507,200.103,68.507z"/>
		<path fill="#1175BD" d="M243.154,43.359h-20.95c-0.758,0-1.376,0.617-1.376,1.377v24.382c0,0.758,0.618,1.375,1.376,1.375
			l20.95,0.001c0.758,0,1.375-0.618,1.375-1.376V44.736C244.529,43.977,243.912,43.359,243.154,43.359z M243.257,69.118
			c0,0.059-0.045,0.104-0.103,0.104h-20.95c-0.058,0-0.104-0.046-0.104-0.104V49.271h21.157V69.118z M222.1,44.736
			c0-0.059,0.047-0.106,0.104-0.106h20.95c0.058,0,0.103,0.048,0.103,0.106v3.263H222.1V44.736z"/>
		<path fill="#1175BD" d="M195.118,47.109h-0.417c0.002-0.033,0.006-0.068,0.006-0.104v-2.863c0-0.76-0.617-1.377-1.377-1.377
			h-17.373c-0.761,0-1.377,0.617-1.377,1.377v2.863c0,0.035,0.002,0.07,0.005,0.104h-0.416c-0.758,0-1.376,0.618-1.376,1.378v20.631
			c0,0.758,0.618,1.375,1.376,1.375h20.949c0.759,0,1.376-0.617,1.376-1.375V48.487C196.494,47.728,195.877,47.109,195.118,47.109z
			 M174.064,48.487c0-0.059,0.047-0.105,0.104-0.105h1.788h17.373h1.788c0.058,0,0.104,0.047,0.104,0.105v20.631
			c0,0.059-0.047,0.104-0.104,0.104h-20.949c-0.058,0-0.104-0.046-0.104-0.104V48.487z M175.852,47.006v-2.863
			c0-0.058,0.049-0.105,0.105-0.105h17.373c0.059,0,0.105,0.047,0.105,0.105v2.863c0,0.058-0.047,0.104-0.105,0.104h-17.373
			C175.899,47.109,175.852,47.063,175.852,47.006z"/>
		<path fill="#1175BD" d="M241.738,45.604h-3.104c-0.59,0-1.07,0.48-1.07,1.07s0.48,1.07,1.07,1.07h3.104
			c0.589,0,1.07-0.48,1.07-1.07S242.327,45.604,241.738,45.604z M238.635,46.521h3.104c0.084,0,0.152,0.067,0.152,0.152
			c0,0.084-0.068,0.153-0.152,0.153h-3.104c-0.084,0-0.153-0.069-0.153-0.153C238.481,46.589,238.551,46.521,238.635,46.521z"/>
		<path fill="#1175BD" d="M225.636,61.829c0.386,0.913,0.937,1.729,1.638,2.431c0.702,0.701,1.521,1.253,2.43,1.638
			c0.943,0.398,1.944,0.602,2.976,0.602c1.032,0,2.034-0.203,2.977-0.603c0.91-0.383,1.727-0.934,2.43-1.637
			c0.701-0.701,1.253-1.52,1.639-2.431c0.397-0.941,0.6-1.943,0.6-2.976s-0.202-2.034-0.6-2.976
			c-0.385-0.908-0.936-1.727-1.639-2.43c-0.702-0.703-1.52-1.254-2.43-1.638c-0.943-0.399-1.944-0.602-2.977-0.602
			c-1.031,0-2.032,0.202-2.976,0.602c-0.911,0.385-1.728,0.936-2.43,1.638c-0.701,0.703-1.254,1.52-1.638,2.43
			c-0.398,0.941-0.601,1.943-0.601,2.976C225.035,59.887,225.237,60.888,225.636,61.829z M232.679,52.48
			c0.86,0,1.694,0.169,2.48,0.501c0.76,0.32,1.441,0.78,2.025,1.366c0.587,0.586,1.046,1.267,1.367,2.025
			c0.333,0.786,0.501,1.62,0.501,2.48c0,0.861-0.168,1.697-0.501,2.481c-0.321,0.759-0.78,1.44-1.367,2.025
			c-0.583,0.585-1.265,1.044-2.025,1.365c-0.784,0.333-1.619,0.501-2.48,0.501c-0.862,0-1.695-0.168-2.479-0.501
			c-0.761-0.32-1.442-0.78-2.027-1.366c-0.586-0.586-1.046-1.268-1.365-2.024c-0.332-0.785-0.501-1.621-0.501-2.481
			c0-0.858,0.169-1.693,0.501-2.48c0.319-0.759,0.779-1.439,1.365-2.025c0.587-0.586,1.269-1.046,2.027-1.366
			C230.984,52.649,231.818,52.48,232.679,52.48z"/>
		<path fill="#1175BD" d="M224.006,52.548c0.771,0,1.396-0.626,1.396-1.396c0-0.771-0.625-1.397-1.396-1.397
			c-0.77,0-1.396,0.627-1.396,1.397C222.609,51.922,223.236,52.548,224.006,52.548z M224.006,50.673
			c0.265,0,0.479,0.214,0.479,0.479c0,0.264-0.214,0.479-0.479,0.479c-0.264,0-0.479-0.215-0.479-0.479
			C223.526,50.887,223.742,50.673,224.006,50.673z"/>
		<path fill="#1175BD" d="M226.625,58.93c0,0.253,0.206,0.458,0.459,0.458c0.254,0,0.46-0.205,0.46-0.458
			c0-0.708,0.138-1.394,0.41-2.038c0.265-0.625,0.642-1.186,1.123-1.667c0.48-0.48,1.042-0.858,1.666-1.123
			c0.645-0.272,1.33-0.411,2.039-0.411c0.253,0,0.459-0.206,0.459-0.458c0-0.253-0.206-0.46-0.459-0.46
			c-0.83,0-1.637,0.164-2.397,0.484c-0.733,0.311-1.391,0.754-1.956,1.32c-0.565,0.563-1.01,1.222-1.319,1.954
			C226.788,57.292,226.625,58.1,226.625,58.93z"/>
		<circle fill="#1175BD" cx="227.084" cy="60.513" r="0.433"/>
		<path fill="#1175BD" d="M179.238,64.26c0.703,0.703,1.52,1.254,2.429,1.638c0.747,0.315,1.533,0.508,2.341,0.575v0.026h1.007
			l0.265-0.01v-0.017c0.808-0.067,1.595-0.26,2.339-0.576c0.909-0.383,1.728-0.933,2.432-1.637c0.701-0.701,1.253-1.519,1.637-2.431
			c0.398-0.939,0.602-1.94,0.602-2.976c0-1.034-0.202-2.036-0.602-2.976c-0.384-0.911-0.937-1.73-1.637-2.43
			c-0.703-0.703-1.521-1.254-2.43-1.638c-0.749-0.316-1.534-0.51-2.341-0.575v-0.026h-1.005l-0.267,0.009v0.018
			c-0.807,0.065-1.593,0.259-2.341,0.575c-0.909,0.384-1.726,0.935-2.429,1.638c-0.7,0.699-1.252,1.517-1.639,2.43
			c-0.399,0.941-0.6,1.943-0.6,2.976c0,1.033,0.2,2.034,0.6,2.976C177.986,62.741,178.537,63.559,179.238,64.26z M178.271,58.854
			c0-0.86,0.168-1.694,0.501-2.48c0.32-0.759,0.779-1.439,1.365-2.025c0.585-0.586,1.269-1.046,2.026-1.366
			c0.786-0.332,1.62-0.501,2.481-0.501c0.859,0,1.694,0.169,2.479,0.501c0.758,0.32,1.439,0.78,2.026,1.366
			c0.586,0.586,1.046,1.267,1.365,2.025c0.332,0.787,0.502,1.62,0.502,2.48s-0.17,1.696-0.502,2.481
			c-0.319,0.759-0.78,1.44-1.365,2.025s-1.267,1.045-2.026,1.365c-0.784,0.333-1.619,0.501-2.479,0.501
			c-0.862,0-1.695-0.168-2.481-0.501c-0.761-0.321-1.442-0.781-2.026-1.366c-0.585-0.584-1.044-1.265-1.365-2.024
			C178.438,60.551,178.271,59.715,178.271,58.854z"/>
		<path fill="#1175BD" d="M180.542,63.104c0.565,0.565,1.225,1.009,1.958,1.32c0.761,0.321,1.568,0.484,2.396,0.484
			c0.254,0,0.46-0.206,0.46-0.46c0-0.252-0.206-0.458-0.46-0.458c-0.709,0-1.396-0.139-2.039-0.411
			c-0.626-0.266-1.187-0.645-1.666-1.124s-0.858-1.039-1.123-1.664c-0.272-0.645-0.412-1.331-0.412-2.041
			c0-0.252-0.205-0.459-0.459-0.459c-0.252,0-0.458,0.207-0.458,0.459c0,0.831,0.162,1.637,0.484,2.398
			C179.535,61.885,179.979,62.542,180.542,63.104z"/>
		<circle fill="#1175BD" cx="207.573" cy="68.048" r="0.433"/>
		<circle fill="#1175BD" cx="179.247" cy="57.448" r="0.433"/>
		<path fill="#1175BD" d="M19.021,42.737c-1.249,0-2.266,1.019-2.266,2.269s1.017,2.267,2.266,2.267c1.25,0,2.268-1.017,2.268-2.267
			S20.27,42.737,19.021,42.737z M19.021,46.593c-0.875,0-1.587-0.711-1.587-1.587s0.712-1.588,1.587-1.588
			c0.876,0,1.588,0.712,1.588,1.588S19.896,46.593,19.021,46.593z"/>
		<path fill="#1175BD" d="M24.193,43.56H23.44c-0.025-0.078-0.055-0.155-0.085-0.231l0.002-0.001
			c-0.008-0.022-0.019-0.043-0.027-0.065c-0.004-0.01-0.007-0.02-0.011-0.029h-0.001c-0.045-0.111-0.094-0.221-0.148-0.33
			l0.53-0.531c0.31-0.31,0.31-0.813,0-1.124l-0.921-0.921c-0.311-0.309-0.812-0.309-1.124,0l-0.532,0.533
			c-0.073-0.038-0.149-0.071-0.224-0.104l0-0.002c-0.019-0.009-0.039-0.017-0.059-0.024c-0.011-0.005-0.022-0.012-0.035-0.017
			l0,0.002c-0.111-0.047-0.224-0.091-0.338-0.128v-0.752c0-0.438-0.356-0.793-0.794-0.793H18.37c-0.438,0-0.794,0.354-0.794,0.793
			v0.752c-0.08,0.026-0.156,0.057-0.233,0.086l-0.001-0.002c-0.018,0.007-0.034,0.015-0.052,0.021
			c-0.014,0.006-0.029,0.011-0.042,0.016l0,0.001c-0.111,0.047-0.221,0.096-0.328,0.151l-0.533-0.533
			c-0.279-0.277-0.709-0.305-1.018-0.086c0.079-0.129,0.151-0.264,0.211-0.406c0.294-0.715,0.294-1.501-0.003-2.215
			c-0.491-1.187-1.726-1.912-3-1.768c-0.268,0.031-0.53,0.1-0.783,0.204c-1.473,0.611-2.176,2.309-1.564,3.782
			c0.492,1.185,1.727,1.912,3,1.767c0.27-0.03,0.533-0.1,0.784-0.204c0.124-0.052,0.242-0.113,0.356-0.181l-0.028,0.027
			c-0.148,0.151-0.232,0.35-0.232,0.562c0,0.212,0.083,0.411,0.232,0.561l0.532,0.532c-0.038,0.074-0.071,0.149-0.104,0.225
			l-0.002-0.001c-0.009,0.021-0.018,0.044-0.027,0.065c-0.004,0.011-0.009,0.02-0.014,0.03h0.001
			c-0.045,0.112-0.088,0.225-0.126,0.339h-0.753c-0.437,0-0.793,0.354-0.793,0.794v1.302c0,0.439,0.356,0.794,0.793,0.794h0.753
			c0.026,0.08,0.057,0.157,0.086,0.234h-0.001c0.005,0.014,0.01,0.025,0.015,0.039c0.007,0.018,0.013,0.037,0.021,0.056l0.002-0.001
			c0.045,0.111,0.093,0.222,0.148,0.33l-0.533,0.533c-0.308,0.309-0.308,0.812,0,1.121l0.924,0.922
			c0.154,0.154,0.357,0.232,0.561,0.232c0.203,0,0.406-0.078,0.562-0.232l0.533-0.532c0.072,0.037,0.148,0.07,0.223,0.103
			l-0.001,0.004c0.027,0.012,0.056,0.022,0.083,0.034c0.003,0.002,0.008,0.004,0.012,0.006l0,0c0.111,0.045,0.224,0.089,0.339,0.126
			v0.752c0,0.438,0.355,0.794,0.794,0.795h1.304c0.437-0.001,0.793-0.357,0.793-0.794v-0.753c0.08-0.025,0.156-0.056,0.232-0.085
			l0.001,0.001c0.015-0.006,0.032-0.014,0.048-0.02c0.015-0.007,0.031-0.011,0.047-0.018l-0.001-0.002
			c0.11-0.046,0.221-0.094,0.328-0.149l0.532,0.532c0.157,0.154,0.36,0.232,0.562,0.232c0.205,0,0.407-0.078,0.562-0.232
			l0.921-0.922c0.31-0.31,0.31-0.812,0-1.121l-0.53-0.533c0.037-0.074,0.069-0.149,0.103-0.225h0.003
			c0.009-0.021,0.018-0.044,0.027-0.067c0.004-0.009,0.009-0.018,0.013-0.026h-0.001c0.046-0.112,0.09-0.225,0.126-0.34h0.752
			c0.439,0,0.794-0.354,0.794-0.793v-1.304C24.986,43.915,24.631,43.56,24.193,43.56z M13.681,40.6
			c-0.178,0.073-0.362,0.122-0.549,0.143c-0.892,0.102-1.755-0.407-2.1-1.237c-0.428-1.033,0.064-2.22,1.096-2.647
			c0.175-0.072,0.36-0.123,0.548-0.143c0.892-0.103,1.755,0.406,2.1,1.236c0.206,0.499,0.206,1.051,0,1.552
			C14.568,40.002,14.179,40.392,13.681,40.6z M24.306,45.657c0,0.062-0.05,0.113-0.114,0.113h-1.27l-0.069,0.267
			c-0.048,0.181-0.112,0.361-0.188,0.535c-0.06,0.139-0.126,0.276-0.202,0.408l-0.141,0.245l0.896,0.896
			c0.044,0.043,0.044,0.117,0,0.161l-0.923,0.923c-0.044,0.043-0.117,0.043-0.159,0l-0.9-0.9l-0.237,0.14
			c-0.165,0.097-0.343,0.182-0.524,0.253c-0.136,0.054-0.275,0.101-0.417,0.14l-0.272,0.073v1.268c0,0.063-0.053,0.113-0.114,0.113
			H18.37c-0.064,0-0.114-0.05-0.114-0.114v-1.27l-0.267-0.068c-0.182-0.049-0.361-0.112-0.535-0.188
			c-0.139-0.061-0.277-0.126-0.407-0.203l-0.245-0.142l-0.898,0.898c-0.044,0.043-0.117,0.043-0.159,0l-0.921-0.923
			c-0.045-0.044-0.045-0.118,0-0.161l0.897-0.897l-0.14-0.237c-0.093-0.163-0.176-0.337-0.246-0.514
			c-0.055-0.141-0.106-0.283-0.145-0.428l-0.071-0.273h-1.269c-0.062,0-0.113-0.052-0.113-0.115v-1.302
			c0-0.063,0.05-0.115,0.113-0.115h1.269l0.069-0.263c0.051-0.191,0.118-0.381,0.199-0.561c0.057-0.131,0.12-0.261,0.192-0.385
			l0.14-0.245l-0.895-0.897c-0.03-0.027-0.034-0.062-0.034-0.079c0-0.018,0.004-0.052,0.034-0.081l0.921-0.922
			c0.042-0.044,0.116-0.044,0.16,0l0.897,0.896l0.235-0.136c0.165-0.095,0.339-0.178,0.517-0.249
			c0.141-0.055,0.283-0.105,0.429-0.145l0.272-0.072v-1.268c0-0.062,0.05-0.113,0.114-0.113h1.303c0.062,0,0.115,0.051,0.115,0.113
			v1.268l0.263,0.07c0.177,0.048,0.354,0.11,0.524,0.184c0.144,0.06,0.284,0.129,0.42,0.207l0.246,0.141l0.897-0.896
			c0.042-0.044,0.114-0.044,0.16,0.001l0.922,0.921c0.044,0.044,0.044,0.117,0,0.162l-0.898,0.897l0.14,0.236
			c0.095,0.164,0.176,0.336,0.246,0.512c0.057,0.141,0.105,0.284,0.144,0.43l0.074,0.273h1.267c0.063,0,0.114,0.051,0.114,0.114
			V45.657z"/>
		<path fill="#1175BD" d="M20.256,36.578l-0.639-1.538c-0.215-0.516-0.808-0.76-1.323-0.547l-0.888,0.368
			c-0.069-0.079-0.14-0.156-0.213-0.232l0.001-0.001c-0.013-0.014-0.027-0.026-0.04-0.04c-0.018-0.018-0.034-0.036-0.053-0.055
			L17.1,34.534c-0.108-0.108-0.22-0.214-0.336-0.313l0.367-0.889c0.214-0.516-0.034-1.109-0.549-1.323l-1.538-0.636
			c-0.517-0.213-1.109,0.032-1.323,0.549l-0.368,0.89c-0.105-0.009-0.21-0.013-0.316-0.016v-0.001c-0.009,0-0.019,0-0.027,0
			c-0.034,0-0.069-0.002-0.104-0.002v0.002c-0.153,0-0.306,0.005-0.46,0.017l-0.368-0.889c-0.216-0.516-0.81-0.762-1.324-0.548
			l-1.537,0.639c-0.517,0.215-0.761,0.809-0.547,1.324l0.367,0.888c-0.08,0.068-0.155,0.142-0.231,0.215l-0.002-0.001
			c-0.02,0.018-0.038,0.038-0.058,0.057c-0.012,0.012-0.024,0.022-0.036,0.033l0.001,0.001c-0.109,0.108-0.217,0.221-0.315,0.338
			l-0.889-0.365c-0.249-0.106-0.523-0.105-0.774,0c-0.252,0.103-0.445,0.298-0.548,0.547l-0.636,1.538
			c-0.104,0.25-0.104,0.525,0,0.776c0.104,0.25,0.299,0.443,0.549,0.548l0.887,0.366c-0.008,0.105-0.013,0.211-0.015,0.315H6.97
			c0,0.012,0,0.023,0,0.036c0,0.031-0.002,0.063-0.002,0.096h0.003c0,0.153,0.005,0.307,0.016,0.46l-0.889,0.369
			c-0.514,0.214-0.761,0.808-0.547,1.323l0.637,1.537c0.216,0.517,0.809,0.763,1.325,0.549l0.889-0.369
			c0.068,0.08,0.142,0.156,0.214,0.233L8.613,42.83c0.021,0.021,0.042,0.041,0.062,0.062c0.01,0.01,0.018,0.021,0.029,0.031
			l0.001-0.002c0.11,0.108,0.222,0.216,0.339,0.315l-0.369,0.889c-0.212,0.516,0.033,1.109,0.549,1.323l1.54,0.635
			c0.162,0.068,0.334,0.09,0.499,0.071c0.354-0.04,0.679-0.268,0.823-0.621l0.367-0.888c0,0,0.102-0.229,0.163-0.441
			c-0.049-0.14-0.06-0.291-0.042-0.438c-0.181,0.007-0.364-0.021-0.536-0.08c-0.051-0.018-0.089-0.054-0.135-0.077
			c-0.017,0.039-0.024,0.082-0.046,0.118c0.011,0.005,0.02,0.011,0.031,0.016l-0.604,1.46c-0.031,0.073-0.116,0.109-0.188,0.078
			l-1.539-0.635c-0.072-0.03-0.109-0.115-0.077-0.188l0.619-1.501l-0.283-0.211c-0.187-0.143-0.366-0.304-0.534-0.475
			c-0.138-0.141-0.267-0.288-0.388-0.443l-0.22-0.286l-1.493,0.62c-0.075,0.03-0.159-0.005-0.189-0.078l-0.639-1.537
			c-0.03-0.074,0.004-0.159,0.078-0.188l1.497-0.62l-0.046-0.347c-0.032-0.24-0.046-0.487-0.042-0.731
			c0.002-0.191,0.014-0.384,0.039-0.574l0.048-0.357l-1.497-0.618c-0.048-0.021-0.069-0.059-0.079-0.079
			c-0.008-0.021-0.02-0.062,0-0.11l0.636-1.538c0.021-0.049,0.059-0.07,0.08-0.078c0.02-0.009,0.062-0.021,0.108,0l1.496,0.618
			l0.213-0.276c0.146-0.191,0.31-0.374,0.483-0.542c0.138-0.136,0.286-0.264,0.438-0.384l0.285-0.22l-0.62-1.494
			c-0.03-0.073,0.005-0.159,0.078-0.189l1.538-0.639c0.048-0.02,0.09-0.007,0.111,0c0.021,0.01,0.057,0.03,0.078,0.079l0.621,1.495
			l0.344-0.046c0.246-0.033,0.498-0.046,0.749-0.042c0.187,0.003,0.373,0.015,0.557,0.039l0.36,0.044l0.615-1.493
			c0.032-0.075,0.117-0.109,0.191-0.078l1.538,0.637c0.073,0.03,0.108,0.114,0.078,0.188l-0.62,1.5l0.281,0.21
			c0.192,0.147,0.377,0.314,0.547,0.49c0.131,0.136,0.258,0.278,0.375,0.429l0.222,0.285l1.493-0.618
			c0.074-0.032,0.159,0.004,0.189,0.077l0.638,1.538c0.031,0.072-0.003,0.159-0.078,0.189l-1.496,0.62l0.047,0.348
			c0.028,0.214,0.04,0.434,0.04,0.651h0.871c0-0.149-0.005-0.299-0.017-0.449l0.888-0.368C20.224,37.688,20.47,37.094,20.256,36.578
			z"/>
		<path fill="#1175BD" d="M58.275,60.302c-0.186-0.254-0.415-0.382-0.685-0.382c-0.254,0-0.561,0.138-0.916,0.407
			c-0.964,0.71-2.064,1.282-3.301,1.715c-1.236,0.431-2.515,0.647-3.834,0.647c-1.677,0-3.247-0.327-4.711-0.979
			c-1.466-0.651-2.748-1.553-3.848-2.706c-1.083-1.149-1.926-2.483-2.527-3.998c-0.602-1.516-0.9-3.119-0.9-4.812
			s0.299-3.289,0.9-4.786c0.601-1.5,1.443-2.815,2.527-3.95c1.084-1.117,2.359-1.989,3.822-2.615
			c1.465-0.626,3.044-0.939,4.737-0.939c1.353,0,2.617,0.203,3.784,0.609c1.031,0.355,2.191,0.932,3.479,1.727
			c0.287,0.187,0.548,0.279,0.787,0.279c0.253,0,0.465-0.11,0.634-0.33l2.692-4.545c0.084-0.119,0.126-0.271,0.126-0.458
			c0-0.305-0.144-0.575-0.431-0.812c-1.542-1.135-3.216-2.002-5.028-2.604s-3.826-0.902-6.043-0.902c-1.76,0-3.472,0.225-5.13,0.674
			c-1.658,0.448-3.226,1.097-4.698,1.943c-1.439,0.812-2.751,1.807-3.937,2.982c-1.186,1.177-2.21,2.485-3.073,3.923
			c-0.863,1.458-1.523,3.015-1.98,4.674c-0.457,1.659-0.687,3.369-0.687,5.13c0,1.762,0.229,3.476,0.687,5.143
			c0.457,1.667,1.117,3.229,1.98,4.686c0.848,1.438,1.867,2.751,3.062,3.936c1.192,1.185,2.509,2.193,3.948,3.022
			c1.472,0.864,3.04,1.523,4.698,1.98c1.659,0.459,3.37,0.686,5.13,0.686c2.202,0,4.202-0.305,6.004-0.913
			c1.804-0.61,3.475-1.482,5.018-2.617c0.388-0.287,0.584-0.566,0.584-0.837c0-0.203-0.103-0.415-0.306-0.636L58.275,60.302z"/>
		<path fill="#1175BD" d="M91.188,50.169c-1.051-0.829-2.305-1.559-3.759-2.184c-1.457-0.627-3.158-1.228-5.106-1.804
			c-1.286-0.372-2.345-0.698-3.174-0.978c-0.83-0.278-1.54-0.588-2.132-0.927c-0.694-0.373-1.216-0.792-1.561-1.258
			c-0.349-0.466-0.521-1.011-0.521-1.637c0-1.542,0.651-2.658,1.955-3.353c0.931-0.474,2.235-0.712,3.913-0.712
			c1.285,0,2.666,0.407,4.138,1.22c0.965,0.559,2.007,1.312,3.124,2.26c0.508,0.423,0.923,0.635,1.246,0.635
			c0.235,0,0.465-0.102,0.686-0.305l2.793-3.022c0.321-0.338,0.48-0.676,0.48-1.016c0-0.321-0.15-0.634-0.456-0.938
			c-1.559-1.591-3.335-2.878-5.333-3.86c-2.152-1.049-4.3-1.574-6.45-1.574c-1.998,0-3.844,0.248-5.537,0.749
			c-1.693,0.499-3.149,1.215-4.368,2.146c-1.236,0.932-2.179,2.044-2.83,3.339c-0.653,1.295-0.978,2.722-0.978,4.28
			c0,2.794,1.075,5.112,3.225,6.958c2.032,1.761,5.163,3.268,9.396,4.521l0.686,0.178c0.948,0.27,1.7,0.5,2.26,0.686
			c0.56,0.186,1.1,0.423,1.624,0.71c1.694,0.933,2.54,2.091,2.54,3.48c0,0.643-0.145,1.261-0.432,1.854
			c-0.288,0.591-0.703,1.117-1.244,1.572c-0.576,0.475-1.266,0.85-2.07,1.119c-0.803,0.271-1.688,0.406-2.653,0.406
			c-1.726,0-3.411-0.475-5.053-1.423c-1.169-0.643-2.421-1.625-3.759-2.945c-0.407-0.372-0.762-0.56-1.066-0.56
			c-0.254,0-0.483,0.103-0.686,0.306l-3.405,3.326c-0.27,0.27-0.406,0.525-0.406,0.76c0,0.053,0.018,0.13,0.052,0.231
			c0.067,0.27,0.261,0.583,0.584,0.939c1.743,1.895,3.834,3.402,6.272,4.52c2.521,1.151,5.062,1.727,7.62,1.727
			c1.845,0,3.612-0.275,5.306-0.824c1.693-0.552,3.191-1.333,4.496-2.35c1.354-1.032,2.408-2.27,3.162-3.707
			c0.752-1.439,1.129-3.014,1.129-4.725c0-1.71-0.316-3.199-0.951-4.47C93.307,52.252,92.389,51.133,91.188,50.169z"/>
		<path fill="#1175BD" d="M124.885,31.402H98.22c-0.661,0-0.99,0.33-0.99,0.99v4.8c0,0.676,0.33,1.016,0.99,1.016h9.472v29.89
			c0,0.677,0.33,1.016,0.991,1.016h5.459c0.661,0,0.99-0.339,0.99-1.016v-29.89h9.752c0.661,0,0.991-0.34,0.991-1.016v-4.8
			C125.876,31.732,125.546,31.402,124.885,31.402z"/>
		<path fill="#1175BD" d="M161.417,31.72c-0.264-0.212-0.557-0.317-0.877-0.317h-5.028c-0.339,0-0.621,0.11-0.851,0.33
			c-0.229,0.22-0.342,0.482-0.342,0.786v21.688c0,1.167-0.196,2.277-0.585,3.327c-0.39,1.052-0.941,1.974-1.65,2.768
			c-0.729,0.813-1.588,1.444-2.578,1.894c-0.99,0.447-2.062,0.672-3.213,0.672s-2.227-0.225-3.225-0.672
			c-0.999-0.449-1.862-1.08-2.591-1.894c-0.71-0.794-1.261-1.716-1.65-2.768c-0.389-1.05-0.583-2.16-0.583-3.327V32.519
			c0-0.286-0.132-0.546-0.395-0.773c-0.263-0.229-0.521-0.343-0.774-0.343h-5.257c-0.288,0-0.538,0.118-0.749,0.354
			c-0.211,0.237-0.317,0.491-0.317,0.762v21.688c0,2.779,0.711,5.384,2.135,7.821c1.354,2.338,3.215,4.192,5.586,5.563
			c2.438,1.42,5.044,2.133,7.82,2.133c2.1,0,4.094-0.403,5.98-1.208c1.889-0.802,3.552-1.924,4.99-3.363
			c1.44-1.439,2.557-3.099,3.352-4.978c0.797-1.88,1.195-3.867,1.195-5.969V32.519C161.811,32.197,161.679,31.932,161.417,31.72z"/>
		<path fill="#1175BD" d="M180.712,44.516h-3.735c-0.497,0-0.9,0.404-0.9,0.899c0,0.498,0.403,0.902,0.9,0.902h3.735
			c0.496,0,0.9-0.404,0.9-0.902C181.612,44.92,181.208,44.516,180.712,44.516z M176.977,45.345h3.735
			c0.038,0,0.071,0.032,0.071,0.07c0,0.041-0.032,0.074-0.071,0.074h-3.735c-0.041,0-0.072-0.033-0.072-0.074
			C176.904,45.377,176.937,45.345,176.977,45.345z"/>
		<path fill="#1175BD" d="M192.091,44.516h-3.734c-0.498,0-0.901,0.404-0.901,0.899c0,0.498,0.403,0.902,0.901,0.902h3.734
			c0.497,0,0.901-0.404,0.901-0.902C192.992,44.92,192.588,44.516,192.091,44.516z M188.356,45.345h3.734
			c0.039,0,0.072,0.032,0.072,0.07c0,0.041-0.032,0.074-0.072,0.074h-3.734c-0.04,0-0.073-0.033-0.073-0.074
			C188.283,45.377,188.316,45.345,188.356,45.345z"/>
	</g>
</g>
</svg>
