<?xml version="1.0" encoding="utf-8"?>
<!-- Generator: Adobe Illustrator 16.0.0, SVG Export Plug-In . SVG Version: 6.00 Build 0)  -->
<!DOCTYPE svg PUBLIC "-//W3C//DTD SVG 1.1//EN" "http://www.w3.org/Graphics/SVG/1.1/DTD/svg11.dtd">
<svg version="1.1" id="Capa_1" xmlns="http://www.w3.org/2000/svg" xmlns:xlink="http://www.w3.org/1999/xlink" x="0px" y="0px"
	 width="100px" height="100px" viewBox="0 0 100 100" enable-background="new 0 0 100 100" xml:space="preserve">
<g>
	<g>
		<g>
			<path fill="#FFFFFF" d="M50.001,97.5C23.809,97.5,2.5,76.189,2.5,49.999S23.809,2.5,50.001,2.5
				C76.191,2.5,97.5,23.809,97.5,49.999S76.191,97.5,50.001,97.5z M50.001,7.111c-23.65,0-42.889,19.239-42.889,42.888
				c0,23.649,19.238,42.888,42.889,42.888c23.646,0,42.887-19.238,42.887-42.888C92.888,26.351,73.647,7.111,50.001,7.111z"/>
		</g>
	</g>
	<g>
		<polygon fill="#FFFFFF" points="35.827,28.827 35.827,71.172 74.099,49.999 		"/>
		<path fill="#FFFFFF" d="M35.827,73.477c-0.407,0-0.812-0.107-1.174-0.32c-0.702-0.412-1.134-1.17-1.134-1.984V28.827
			c0-0.816,0.432-1.572,1.134-1.986c0.705-0.415,1.573-0.427,2.288-0.031l38.272,21.172c0.736,0.406,1.19,1.178,1.19,2.018
			c0,0.839-0.454,1.611-1.19,2.019L36.941,73.189C36.594,73.383,36.21,73.477,35.827,73.477z M38.133,32.738V67.26l31.202-17.261
			L38.133,32.738z"/>
	</g>
</g>
</svg>
